#N canvas 952 187 625 660 12;
#X declare -path else;
#X obj 10 12 note 104 24 Inter empty 5 54 54 54 0 187 187 187 1 1 CHORUS;
#X obj 12 91 else/knob 41 0.1 5 4 0.1 empty empty #dfdfdf #bbbbbb #000000 0 0 0 0 1 320 0 0 0.1;
#X obj 149 91 else/knob 41 0 1 0 0 empty empty #9f9f9f #afafaf black 0 0 0 0 1 320 0 0 0;
#X obj 82 91 else/knob 41 0 25 2 0 empty empty #dfdfdf #afafaf black 0 0 0 0 1 320 0 0 0;
#X msg 139 67 set \$1;
#X msg 64 67 set \$1;
#X msg -8 67 set \$1;
#X obj 149 141 nbx 4 18 0 1 0 0 \$0-wet \$0-wetr Dry/Wet 0 -8 0 10 #e4e4e4 #373737 #373737 0 256;
#X obj 82 141 nbx 4 18 0 25 0 0 \$0-depth \$0-depthr Depth 0 -8 0 10 #e4e4e4 #373737 #373737 0 256;
#X obj 12 141 nbx 4 18 0.1 5 0 0 \$0-rate \$0-rater Rate 0 -8 0 10 #e4e4e4 #373737 #373737 0 256;
#N canvas 171 120 601 317 init-savestate 0;
#X obj 74 87 savestate;
#X obj 320 171 declare -path else;
#X obj 49 125 list;
#X obj 49 43 loadbang;
#X obj 49 171 else/default 0 0 0 0;
#X obj 134 119 else/var \$0-rate \$0-depth \$0-wet;
#X obj 49 222 else/dispatch \$0-rater \$0-depthr \$0-wetr, f 50;
#X connect 0 0 2 1;
#X connect 0 1 5 0;
#X connect 2 0 4 0;
#X connect 3 0 2 0;
#X connect 4 0 6 0;
#X connect 5 0 0 0;
#X restore 10 211 pd init-savestate;
#X text -8 -26 IN;
#X obj -37 296 r \$0-rate;
#X obj 46 296 r \$0-depth;
#X obj -120 336 chorus~, f 36;
#X obj 129 296 r \$0-wet;
#X obj -258 500 outlet~;
#X obj 149 18 tgl 36 0 \$0-switch \$0-switchr On/Off -5 -10 0 15 #e4e4e4 #4d4d4d #373737 0 1;
#X obj -258 114 + 1;
#X obj -258 146 gate~ 2 1;
#X obj -215 116 inlet~;
#X text 284 56 default in plugdata;
#N canvas 243 43 499 411 preset 0;
#X obj 125 121 else/sender 1 \\\$0-presets;
#X msg 125 86 name \$1;
#X obj 90 171 else/receiver;
#X obj 123 220 route list;
#N canvas 468 182 491 352 id-name-init 0;
#X obj 165 113 + 1;
#X obj 257 100 else/dollsym 1;
#X obj 141 80 value;
#X obj 141 252 outlet;
#X obj 141 51 else/loadbanger 2;
#X obj 141 201 else/dollsym 1;
#X obj 257 76 symbol chorus-id_\\\$0;
#X obj 141 166 else/format symbol \\\$0-chorus-%d;
#X connect 0 0 2 0;
#X connect 1 0 2 1;
#X connect 2 0 0 0;
#X connect 2 0 7 0;
#X connect 4 0 2 0;
#X connect 4 1 6 0;
#X connect 5 0 3 0;
#X connect 6 0 1 0;
#X connect 7 0 5 0;
#X restore 90 39 pd id-name-init;
#X obj 90 311 else/var \$0-rate \$0-depth \$0-wet;
#X obj 123 258 else/dispatch \$0-rater \$0-depthr \$0-wetr, f 51;
#X connect 1 0 0 0;
#X connect 2 0 3 0;
#X connect 2 0 5 0;
#X connect 3 0 6 0;
#X connect 4 0 1 0;
#X connect 4 0 2 0;
#X restore 64 248 pd preset;
#N canvas 200 115 764 360 GUI 0;
#X obj 81 62 r \$0-wet;
#X msg 81 99 wet \$1;
#X msg 160 99 cutoff \$1;
#X obj 160 62 r \$0-cutoff;
#X obj 258 62 r \$0-clear;
#X msg 258 99 clear;
#X msg 81 288 set \$1;
#X obj 81 195 s \$0-rev;
#X obj 349 62 r \$0-pre;
#X msg 349 99 pre \$1;
#X obj 441 62 r \$0-damp;
#X msg 441 99 damp \$1;
#X obj 81 254 r \$0-pre-number;
#X obj 81 317 s \$0-set-pre;
#X msg 531 99 size \$1;
#X obj 531 62 r \$0-size;
#X connect 0 0 1 0;
#X connect 1 0 7 0;
#X connect 2 0 7 0;
#X connect 3 0 2 0;
#X connect 4 0 5 0;
#X connect 5 0 7 0;
#X connect 6 0 13 0;
#X connect 8 0 9 0;
#X connect 9 0 7 0;
#X connect 10 0 11 0;
#X connect 11 0 7 0;
#X connect 12 0 6 0;
#X connect 14 0 7 0;
#X connect 15 0 14 0;
#X restore 4 248 pd GUI;
#X text 149 243 no idea what these two subpatches do..;
#X text 150 215 wonder if this can be generally be applied to all patches;
#N canvas 402 270 447 300 presets 1;
#X obj 319 57 savestate;
#X msg 365 92 export;
#X obj 20 10 hradio 21 1 0 3 empty \$0-radio Load\ preset 0 4 0 10 #aaaaaa #000000 #000000 0;
#N canvas 356 221 694 431 shift 0;
#X msg 137 214 save;
#X msg 218 214 load;
#X obj 106 264 else/insert;
#X obj 218 293 s \$0-radio;
#X obj 175 95 keyname;
#X obj 214 117 select Shift_L;
#X msg 214 139 1;
#X msg 295 138 0;
#X obj 199 166 &&;
#X obj 199 188 sel 1 0;
#X obj 106 35 inlet;
#X obj 106 344 outlet;
#X msg 218 242 color #aaaaaa #000000 #000000 \, label Load\ preset;
#X msg 227 270 color #ff5050 #000000 #000000 \, label Save\ preset;
#X connect 0 0 2 1;
#X connect 0 0 13 0;
#X connect 1 0 2 1;
#X connect 1 0 12 0;
#X connect 2 0 11 0;
#X connect 4 0 8 0;
#X connect 4 1 5 0;
#X connect 5 0 6 0;
#X connect 5 1 7 0;
#X connect 6 0 8 1;
#X connect 7 0 8 1;
#X connect 8 0 9 0;
#X connect 9 0 0 0;
#X connect 9 1 1 0;
#X connect 10 0 2 0;
#X connect 12 0 3 0;
#X connect 13 0 3 0;
#X restore 319 26 pd shift;
#X obj 62 204 f \$0;
#X obj 110 204 r \$0-A;
#X obj 186 204 r \$0-B;
#X obj 256 204 r \$0-C;
#X obj 330 204 r \$0-D;
#X obj 110 255 nbx 4 18 -1e+37 1e+37 0 0 empty empty empty 0 -8 0 10 #e4e4e4 #373737 #373737 0 256;
#X obj 186 255 nbx 4 18 -1e+37 1e+37 0 0 empty empty empty 0 -8 0 10 #e4e4e4 #373737 #373737 0 256;
#X obj 256 255 nbx 4 18 -1e+37 1e+37 0 0 empty empty empty 0 -8 0 10 #e4e4e4 #373737 #373737 0 256;
#X obj 330 255 nbx 4 18 -1e+37 1e+37 0 0 empty empty empty 0 -8 0 10 #e4e4e4 #373737 #373737 0 256;
#X obj -1 89 t f b;
#X obj 569 299 pick;
#X obj 582 211 + 1;
#X obj 569 238 del 10 1 msec;
#X text 354 182 preset variables;
#X text 85 -41 adapted from advanced examples from ELSE presets;
#X text 569 188 preset effect names;
#X obj 1 -29 inlet;
#X text 491 17 read last saved file;
#X msg 419 44 read eff-chorus-preset.txt;
#X msg 62 338 set \$1 \$2 \$3 \$4 \$5 \$6;
#X msg 435 92 write;
#X text 435 69 write to text file;
#X obj 89 228 r \$0-switch;
#X obj 168 228 r \$0-rate;
#X obj 242 228 r \$0-depth;
#X obj 330 228 r \$0-wet;
#X obj 62 311 pack2 f s f f f f;
#X msg 62 507 \; \$1-presetlabelr label \$2 \; \$1-switchr \$3 \; \$1-rater \$4 \; \$1-depthr \$5 \; \$1-wetr \$6 \;;
#X obj 365 122 presets \\\$0-A \\\$0-B \\\$0-C \\\$0-D;
#A saved \\\$0-A 0 || \\\$0-B 0.1 || \\\$0-C 0 || \\\$0-D 0 || \; \\\$0-A 1 || \\\$0-B 0.1 || \\\$0-C 6 || \\\$0-D 0.5 || \; \\\$0-A 1 || \\\$0-B 0.2 || \\\$0-C 10 || \\\$0-D 0.7 || \; -empty- \; -empty- \; -empty- \; -empty- \; -empty- \; -empty- \; -empty- \; -empty- \; -empty- \; -empty- \; -empty- \; -empty- \; -empty- \; -empty- \; -empty- \; -empty- \; -empty- \; -empty- \; -empty- \; -empty- \; -empty- \; -empty- \; -empty- \; -empty- \; -empty- \; -empty- \; -empty- \; -empty- \; -empty- \; -empty- \; -empty- \; -empty- \; -empty- \; -empty- \; -empty- \; -empty- \; -empty- \; -empty- \; -empty- \; -empty- \; -empty- \; -empty- \; -empty- \; -empty- \; -empty- \; -empty- \; -empty- \; -empty- \; -empty- \; -empty- \; -empty- \; -empty- \; -empty- \; -empty- \; -empty- \; -empty- \; -empty- \; -empty- \; -empty- \; -empty- \; -empty- \;;
#X msg 569 269 bypass light\ rhythm thicken;
#X obj 419 10 loadbang;
#X listbox 62 394 21 0 0 0 - - - 0;
#X obj -52 386 del 100 1 msec;
#X text -223 402 push when preset selected;
#X text -193 377 store running values;
#X obj 62 431 store;
#A saved;
#X obj -52 431 del 100 1 msec;
#X msg 1 410 clear;
#X obj -52 364 del 100 1 msec;
#X obj 4 10 hradio 11 1 0 1 empty \$0-presetlabelr bypass -5 -5 0 10 #e4e4e4 #4d4d4d #373737 0;
#X connect 0 0 32 0;
#X connect 0 1 1 0;
#X connect 1 0 32 0;
#X connect 2 0 3 0;
#X connect 2 0 13 0;
#X connect 3 0 32 0;
#X connect 4 0 30 0;
#X connect 5 0 9 0;
#X connect 6 0 10 0;
#X connect 7 0 11 0;
#X connect 8 0 12 0;
#X connect 9 0 30 2;
#X connect 10 0 30 3;
#X connect 11 0 30 4;
#X connect 12 0 30 5;
#X connect 13 0 15 0;
#X connect 13 1 16 0;
#X connect 13 1 4 0;
#X connect 13 1 9 0;
#X connect 13 1 10 0;
#X connect 13 1 11 0;
#X connect 13 1 12 0;
#X connect 13 1 42 0;
#X connect 14 0 30 1;
#X connect 15 0 14 1;
#X connect 16 0 33 0;
#X connect 20 0 2 0;
#X connect 22 0 32 0;
#X connect 24 0 32 0;
#X connect 26 0 9 0;
#X connect 27 0 10 0;
#X connect 28 0 11 0;
#X connect 29 0 12 0;
#X connect 30 0 23 0;
#X connect 30 0 35 0;
#X connect 32 0 0 0;
#X connect 33 0 14 0;
#X connect 34 0 22 0;
#X connect 35 0 39 1;
#X connect 36 0 35 0;
#X connect 36 0 40 0;
#X connect 39 0 31 0;
#X connect 40 0 39 0;
#X connect 41 0 39 0;
#X connect 42 0 41 0;
#X connect 42 0 36 0;
#X coords 0 0 1 1 87 33 2 0 0;
#X restore 96 163 pd presets;
#X obj 109 -96 inlet;
#X obj 109 -67 route preset;
#X connect 1 0 9 0;
#X connect 2 0 7 0;
#X connect 3 0 8 0;
#X connect 4 0 2 0;
#X connect 5 0 3 0;
#X connect 6 0 1 0;
#X connect 7 0 4 0;
#X connect 8 0 5 0;
#X connect 9 0 6 0;
#X connect 12 0 14 1;
#X connect 13 0 14 2;
#X connect 14 0 16 0;
#X connect 15 0 14 3;
#X connect 17 0 18 0;
#X connect 18 0 19 0;
#X connect 19 0 16 0;
#X connect 19 1 14 0;
#X connect 20 0 19 1;
#X connect 27 0 28 0;
#X connect 28 0 26 0;
#X coords 0 1 100 -1 197 195 2 0 1;
