#N canvas 0 50 450 300 12;
#X obj 0 0 note 400 20 Arial empty 1 0 0 0 0 228 228 228 1 0 Tuner;
#X obj 214 75 cnv 15 65 20 empty Note_name Note 5 10 0 14 #00fc04 #000000 0;
#X obj 93 608 route 0;
#X obj 93 525 *~ 5;
#X obj 30 112 hsl 300 15 -1 1 0 0 empty cursor_tuner empty -2 -8 0 10 #fcfcfc #000000 #000000 0 1;
#X obj 109 808 s cursor_tuner;
#N canvas 0 0 450 300 (subpatch) 0;
#X array Tuner_ticks 12 float 3;
#A 0 0 0 0 0 0 0 0 0 0 0 0 0;
#X coords 0 1 12 0 300 10 1;
#X restore 30 100 graph;
#X floatatom 162 127 7 0 0 0 - - - 0;
#X obj 197 468 loadbang;
#X obj 289 -103 loadbang;
#X msg 289 -82 0;
#X text 175 79 |;
#X obj 496 627 s String1;
#X obj 556 627 s String2;
#X obj 616 627 s String3;
#X obj 676 627 s String4;
#X obj 736 627 s String5;
#X obj 796 627 s String6;
#X obj 112 701 r String1;
#X obj 172 701 r String2;
#X obj 232 701 r String3;
#X obj 292 701 r String4;
#X obj 352 701 r String5;
#X obj 412 701 r String6;
#X msg 532 568 40 45 50 55 59 64;
#X obj 532 596 unpack 0 0 0 0 0 0;
#X msg 113 557 npts 16384;
#X obj 93 630 unpack 0 0;
#X obj 93 587 sigmund~ -npeak 1 peaks;
#X msg 657 392 C;
#X msg 742 391 D;
#X msg 771 390 Eb;
#X msg 801 390 E;
#X obj 697 309 mod 12;
#X obj 697 329 sel 0 1 2 3 4 5 6 7 8 9 10 11;
#X msg 829 390 F;
#X msg 920 387 G;
#X msg 949 387 Ab;
#X msg 980 389 A;
#X msg 1012 390 Bb;
#X msg 1043 389 B;
#X obj 764 444 symbol;
#X msg 764 464 \; Note_name label \$1 \;;
#X msg 687 391 C-sharp;
#X msg 859 390 F-sharp;
#X obj 286 811 s midi_to_letter;
#X obj 697 289 r midi_to_letter;
#X msg 197 489 \; Tuner_ticks xticks 6 1 1 \; Note_name label Note \;;
#X text 815 290 Get the letter corresponding to target note;
#X text 762 500 Display it in the GUI;
#X text 252 586 Analyse the frequency of;
#X text 252 602 fundamental (play one;
#X text 252 617 string at a time!);
#X text 657 566 Send list of midi target notes (one for each string);
#X obj 543 530 inlet;
#X text 585 528 Get custom list of midi target notes (for non-standard tuning);
#X text 606 801 Pierre Massat \, GuitarExtended \, 2012;
#N canvas 0 50 450 300 IdentifyNote 0;
#X obj 287 316 / 2;
#X obj 409 317 / 4;
#X obj 183 403 ftom;
#X obj 183 382 max 0;
#X obj 183 323 change;
#X obj 234 349 change;
#X obj 377 360 change;
#X obj 171 96 inlet;
#X obj 183 487 outlet;
#X obj 179 261 expr if($f2<$f1 & $f1<$f3 \, $f1 \, 0) \; if(($f2*2)<$f1 & $f1<($f3*2) \, $f1 \, 0) \; if(($f2*4)<$f1 & $f1<($f3*4) \, $f1 \, 0);
#X obj 291 210 - 1;
#X obj 404 215 + 1;
#X obj 404 235 mtof;
#X obj 291 230 mtof;
#X obj 392 115 inlet;
#X text 452 116 Target midi note;
#X text 436 236 One half-step above (frequ);
#X text 193 180 One half-step below (frequ);
#X obj 183 460 - 0;
#X text 210 459 Minus target note to output 0 when in tune.;
#X obj 311 514 f;
#X obj 310 540 outlet;
#X obj 311 495 bang;
#X text 348 511 Output target midi note everytime something's;
#X text 348 525 output.;
#X text 435 554 Pierre Massat \, GuitarExtended \, 2012;
#X connect 0 0 5 0;
#X connect 1 0 6 0;
#X connect 2 0 18 0;
#X connect 2 0 22 0;
#X connect 3 0 2 0;
#X connect 4 0 3 0;
#X connect 5 0 3 0;
#X connect 6 0 3 0;
#X connect 7 0 9 0;
#X connect 9 0 4 0;
#X connect 9 1 0 0;
#X connect 9 2 1 0;
#X connect 10 0 13 0;
#X connect 11 0 12 0;
#X connect 12 0 9 2;
#X connect 13 0 9 1;
#X connect 14 0 10 0;
#X connect 14 0 11 0;
#X connect 14 0 18 1;
#X connect 14 0 20 1;
#X connect 18 0 8 0;
#X connect 20 0 21 0;
#X connect 22 0 20 0;
#X restore 12 743 pd IdentifyNote;
#N canvas 0 50 450 300 IdentifyNote 0;
#X obj 287 316 / 2;
#X obj 409 317 / 4;
#X obj 183 403 ftom;
#X obj 183 382 max 0;
#X obj 183 323 change;
#X obj 234 349 change;
#X obj 377 360 change;
#X obj 171 96 inlet;
#X obj 183 487 outlet;
#X obj 179 261 expr if($f2<$f1 & $f1<$f3 \, $f1 \, 0) \; if(($f2*2)<$f1 & $f1<($f3*2) \, $f1 \, 0) \; if(($f2*4)<$f1 & $f1<($f3*4) \, $f1 \, 0);
#X obj 291 210 - 1;
#X obj 404 215 + 1;
#X obj 404 235 mtof;
#X obj 291 230 mtof;
#X obj 392 115 inlet;
#X text 452 116 Target midi note;
#X text 436 236 One half-step above (frequ);
#X text 193 180 One half-step below (frequ);
#X obj 183 460 - 0;
#X text 210 459 Minus target note to output 0 when in tune.;
#X obj 311 514 f;
#X obj 310 540 outlet;
#X obj 311 495 bang;
#X text 348 511 Output target midi note everytime something's;
#X text 348 525 output.;
#X text 435 554 Pierre Massat \, GuitarExtended \, 2012;
#X connect 0 0 5 0;
#X connect 1 0 6 0;
#X connect 2 0 18 0;
#X connect 2 0 22 0;
#X connect 3 0 2 0;
#X connect 4 0 3 0;
#X connect 5 0 3 0;
#X connect 6 0 3 0;
#X connect 7 0 9 0;
#X connect 9 0 4 0;
#X connect 9 1 0 0;
#X connect 9 2 1 0;
#X connect 10 0 13 0;
#X connect 11 0 12 0;
#X connect 12 0 9 2;
#X connect 13 0 9 1;
#X connect 14 0 10 0;
#X connect 14 0 11 0;
#X connect 14 0 18 1;
#X connect 14 0 20 1;
#X connect 18 0 8 0;
#X connect 20 0 21 0;
#X connect 22 0 20 0;
#X restore 212 743 pd IdentifyNote;
#N canvas 0 50 450 300 IdentifyNote 0;
#X obj 287 316 / 2;
#X obj 409 317 / 4;
#X obj 183 403 ftom;
#X obj 183 382 max 0;
#X obj 183 323 change;
#X obj 234 349 change;
#X obj 377 360 change;
#X obj 171 96 inlet;
#X obj 183 487 outlet;
#X obj 179 261 expr if($f2<$f1 & $f1<$f3 \, $f1 \, 0) \; if(($f2*2)<$f1 & $f1<($f3*2) \, $f1 \, 0) \; if(($f2*4)<$f1 & $f1<($f3*4) \, $f1 \, 0);
#X obj 291 210 - 1;
#X obj 404 215 + 1;
#X obj 404 235 mtof;
#X obj 291 230 mtof;
#X obj 392 115 inlet;
#X text 452 116 Target midi note;
#X text 436 236 One half-step above (frequ);
#X text 193 180 One half-step below (frequ);
#X obj 183 460 - 0;
#X text 210 459 Minus target note to output 0 when in tune.;
#X obj 311 514 f;
#X obj 310 540 outlet;
#X obj 311 495 bang;
#X text 348 511 Output target midi note everytime something's;
#X text 348 525 output.;
#X text 435 554 Pierre Massat \, GuitarExtended \, 2012;
#X connect 0 0 5 0;
#X connect 1 0 6 0;
#X connect 2 0 18 0;
#X connect 2 0 22 0;
#X connect 3 0 2 0;
#X connect 4 0 3 0;
#X connect 5 0 3 0;
#X connect 6 0 3 0;
#X connect 7 0 9 0;
#X connect 9 0 4 0;
#X connect 9 1 0 0;
#X connect 9 2 1 0;
#X connect 10 0 13 0;
#X connect 11 0 12 0;
#X connect 12 0 9 2;
#X connect 13 0 9 1;
#X connect 14 0 10 0;
#X connect 14 0 11 0;
#X connect 14 0 18 1;
#X connect 14 0 20 1;
#X connect 18 0 8 0;
#X connect 20 0 21 0;
#X connect 22 0 20 0;
#X restore 112 743 pd IdentifyNote;
#N canvas 0 50 450 300 IdentifyNote 0;
#X obj 287 316 / 2;
#X obj 409 317 / 4;
#X obj 183 403 ftom;
#X obj 183 382 max 0;
#X obj 183 323 change;
#X obj 234 349 change;
#X obj 377 360 change;
#X obj 171 96 inlet;
#X obj 183 487 outlet;
#X obj 179 261 expr if($f2<$f1 & $f1<$f3 \, $f1 \, 0) \; if(($f2*2)<$f1 & $f1<($f3*2) \, $f1 \, 0) \; if(($f2*4)<$f1 & $f1<($f3*4) \, $f1 \, 0);
#X obj 291 210 - 1;
#X obj 404 215 + 1;
#X obj 404 235 mtof;
#X obj 291 230 mtof;
#X obj 392 115 inlet;
#X text 452 116 Target midi note;
#X text 436 236 One half-step above (frequ);
#X text 193 180 One half-step below (frequ);
#X obj 183 460 - 0;
#X text 210 459 Minus target note to output 0 when in tune.;
#X obj 311 514 f;
#X obj 310 540 outlet;
#X obj 311 495 bang;
#X text 348 511 Output target midi note everytime something's;
#X text 348 525 output.;
#X text 435 554 Pierre Massat \, GuitarExtended \, 2012;
#X connect 0 0 5 0;
#X connect 1 0 6 0;
#X connect 2 0 18 0;
#X connect 2 0 22 0;
#X connect 3 0 2 0;
#X connect 4 0 3 0;
#X connect 5 0 3 0;
#X connect 6 0 3 0;
#X connect 7 0 9 0;
#X connect 9 0 4 0;
#X connect 9 1 0 0;
#X connect 9 2 1 0;
#X connect 10 0 13 0;
#X connect 11 0 12 0;
#X connect 12 0 9 2;
#X connect 13 0 9 1;
#X connect 14 0 10 0;
#X connect 14 0 11 0;
#X connect 14 0 18 1;
#X connect 14 0 20 1;
#X connect 18 0 8 0;
#X connect 20 0 21 0;
#X connect 22 0 20 0;
#X restore 424 743 pd IdentifyNote;
#N canvas 0 50 450 300 IdentifyNote 0;
#X obj 287 316 / 2;
#X obj 409 317 / 4;
#X obj 183 403 ftom;
#X obj 183 382 max 0;
#X obj 183 323 change;
#X obj 234 349 change;
#X obj 377 360 change;
#X obj 171 96 inlet;
#X obj 183 487 outlet;
#X obj 179 261 expr if($f2<$f1 & $f1<$f3 \, $f1 \, 0) \; if(($f2*2)<$f1 & $f1<($f3*2) \, $f1 \, 0) \; if(($f2*4)<$f1 & $f1<($f3*4) \, $f1 \, 0);
#X obj 291 210 - 1;
#X obj 404 215 + 1;
#X obj 404 235 mtof;
#X obj 291 230 mtof;
#X obj 392 115 inlet;
#X text 452 116 Target midi note;
#X text 436 236 One half-step above (frequ);
#X text 193 180 One half-step below (frequ);
#X obj 183 460 - 0;
#X text 210 459 Minus target note to output 0 when in tune.;
#X obj 311 514 f;
#X obj 310 540 outlet;
#X obj 311 495 bang;
#X text 348 511 Output target midi note everytime something's;
#X text 348 525 output.;
#X text 435 554 Pierre Massat \, GuitarExtended \, 2012;
#X connect 0 0 5 0;
#X connect 1 0 6 0;
#X connect 2 0 18 0;
#X connect 2 0 22 0;
#X connect 3 0 2 0;
#X connect 4 0 3 0;
#X connect 5 0 3 0;
#X connect 6 0 3 0;
#X connect 7 0 9 0;
#X connect 9 0 4 0;
#X connect 9 1 0 0;
#X connect 9 2 1 0;
#X connect 10 0 13 0;
#X connect 11 0 12 0;
#X connect 12 0 9 2;
#X connect 13 0 9 1;
#X connect 14 0 10 0;
#X connect 14 0 11 0;
#X connect 14 0 18 1;
#X connect 14 0 20 1;
#X connect 18 0 8 0;
#X connect 20 0 21 0;
#X connect 22 0 20 0;
#X restore 318 743 pd IdentifyNote;
#N canvas 0 50 450 300 IdentifyNote 0;
#X obj 287 316 / 2;
#X obj 409 317 / 4;
#X obj 183 403 ftom;
#X obj 183 382 max 0;
#X obj 183 323 change;
#X obj 234 349 change;
#X obj 377 360 change;
#X obj 171 96 inlet;
#X obj 183 487 outlet;
#X obj 179 261 expr if($f2<$f1 & $f1<$f3 \, $f1 \, 0) \; if(($f2*2)<$f1 & $f1<($f3*2) \, $f1 \, 0) \; if(($f2*4)<$f1 & $f1<($f3*4) \, $f1 \, 0);
#X obj 291 210 - 1;
#X obj 404 215 + 1;
#X obj 404 235 mtof;
#X obj 291 230 mtof;
#X obj 392 115 inlet;
#X text 452 116 Target midi note;
#X text 436 236 One half-step above (frequ);
#X text 193 180 One half-step below (frequ);
#X obj 183 460 - 0;
#X text 210 459 Minus target note to output 0 when in tune.;
#X obj 311 514 f;
#X obj 310 540 outlet;
#X obj 311 495 bang;
#X text 348 511 Output target midi note everytime something's;
#X text 348 525 output.;
#X text 435 554 Pierre Massat \, GuitarExtended \, 2012;
#X connect 0 0 5 0;
#X connect 1 0 6 0;
#X connect 2 0 18 0;
#X connect 2 0 22 0;
#X connect 3 0 2 0;
#X connect 4 0 3 0;
#X connect 5 0 3 0;
#X connect 6 0 3 0;
#X connect 7 0 9 0;
#X connect 9 0 4 0;
#X connect 9 1 0 0;
#X connect 9 2 1 0;
#X connect 10 0 13 0;
#X connect 11 0 12 0;
#X connect 12 0 9 2;
#X connect 13 0 9 1;
#X connect 14 0 10 0;
#X connect 14 0 11 0;
#X connect 14 0 18 1;
#X connect 14 0 20 1;
#X connect 18 0 8 0;
#X connect 20 0 21 0;
#X connect 22 0 20 0;
#X restore 532 743 pd IdentifyNote;
#X obj -108 489 inlet~;
#X msg 11 -60 40 45 50 55 59 64;
#X text 146 -61 <-- Standard tuning (E \, A \, D \, G \, B \, E);
#X text 146 -40 <-- Open-G tuning (D \, G \, D \, G \, B \, D);
#X msg 20 -38 38 43 50 55 59 62;
#X text 168 -20 And so on (in midi notation)...;
#X obj 296 53 tgl 36 0 empty empty On/Off -5 -10 0 15 #e4e4e4 #4d4d4d #373737 0 1;
#X obj -151 490 + 1;
#X obj -151 525 gate~ 2 1;
#X obj -151 596 outlet~;
#X connect 2 0 27 0;
#X connect 3 0 28 0;
#X connect 4 0 7 0;
#X connect 8 0 47 0;
#X connect 8 0 24 0;
#X connect 8 0 26 0;
#X connect 9 0 10 0;
#X connect 9 0 64 0;
#X connect 10 0 69 0;
#X connect 18 0 57 1;
#X connect 19 0 59 1;
#X connect 20 0 58 1;
#X connect 21 0 61 1;
#X connect 22 0 60 1;
#X connect 23 0 62 1;
#X connect 24 0 25 0;
#X connect 25 0 12 0;
#X connect 25 1 13 0;
#X connect 25 2 14 0;
#X connect 25 3 15 0;
#X connect 25 4 16 0;
#X connect 25 5 17 0;
#X connect 26 0 28 0;
#X connect 27 0 57 0;
#X connect 27 0 59 0;
#X connect 27 0 58 0;
#X connect 27 0 60 0;
#X connect 27 0 61 0;
#X connect 27 0 62 0;
#X connect 28 0 2 0;
#X connect 29 0 41 0;
#X connect 30 0 41 0;
#X connect 31 0 41 0;
#X connect 32 0 41 0;
#X connect 33 0 34 0;
#X connect 34 0 29 0;
#X connect 34 1 43 0;
#X connect 34 2 30 0;
#X connect 34 3 31 0;
#X connect 34 4 32 0;
#X connect 34 5 35 0;
#X connect 34 6 44 0;
#X connect 34 7 36 0;
#X connect 34 8 37 0;
#X connect 34 9 38 0;
#X connect 34 10 39 0;
#X connect 34 11 40 0;
#X connect 35 0 41 0;
#X connect 36 0 41 0;
#X connect 37 0 41 0;
#X connect 38 0 41 0;
#X connect 39 0 41 0;
#X connect 40 0 41 0;
#X connect 41 0 42 0;
#X connect 43 0 41 0;
#X connect 44 0 41 0;
#X connect 46 0 33 0;
#X connect 54 0 25 0;
#X connect 57 0 5 0;
#X connect 57 1 45 0;
#X connect 58 0 5 0;
#X connect 58 1 45 0;
#X connect 59 0 5 0;
#X connect 59 1 45 0;
#X connect 60 0 5 0;
#X connect 60 1 45 0;
#X connect 61 0 5 0;
#X connect 61 1 45 0;
#X connect 62 0 5 0;
#X connect 62 1 45 0;
#X connect 63 0 71 1;
#X connect 64 0 0 0;
#X connect 67 0 0 0;
#X connect 69 0 70 0;
#X connect 70 0 71 0;
#X connect 71 0 72 0;
#X connect 71 1 3 0;
#X coords 0 0 1 1 400 200 1 0 1;
