#N canvas 272 218 601 455 12;
#X declare -path else;
#X obj 1 2 note 128 20 Arial empty 1 0 0 0 0 228 228 228 1 0 modDDL;
#X obj 249 6 cnv 15 100 161 empty empty empty 20 12 0 14 #b7b7b7 #373737 0;
#X obj 551 177 cnv 15 604 573 empty empty empty 20 12 0 14 #d6d88d #373737 0;
#X obj 766 361 cnv 15 314 122 empty empty empty 20 12 0 14 #b7b7b7 #373737 0;
#X obj -303 147 *~ 0.8;
#X obj 11 39 vsl 16 128 50 10000 1 0 empty empty time\ (ms) -5 -9 0 10 #fcfcfc #000000 #000000 0 1;
#X obj -322 90 delwrite~ delayeffect 10000;
#X obj 53 39 vsl 15 128 0 1 0 0 empty empty feedback -5 -9 0 10 #fcfcfc #000000 #000000 0 1;
#X msg -265 56 clear;
#X obj -421 400 outlet~;
#N canvas 0 0 612 483 equal_power_crossfade 0;
#X obj 33 48 inlet~;
#X obj 244 58 inlet;
#X obj 33 332 outlet~;
#X obj 319 54 loadbang;
#X msg 319 74 0.5;
#X obj 49 194 expr cos($f1 * 3.14159 / 2);
#X obj 244 194 expr sin($f1 * 3.14159 / 2);
#X obj 244 134 clip 0 1;
#N canvas 0 0 450 300 pan_core 0;
#X obj 21 106 inlet~;
#X obj 226 126 inlet;
#X obj 80 453 *~;
#X obj 144 497 outlet~;
#X obj 210 452 *~;
#X obj 226 428 line~;
#X obj 96 428 line~;
#X obj 96 127 inlet;
#X obj 179 104 inlet~;
#X text 244 544 comment;
#X obj 96 389 pack f 5;
#X obj 226 389 pack f 5;
#X text 223 540 Hans-Christoph Steiner \, 2004;
#X text 223 526 Adapted from [pan_core~];
#X obj 360 497 outlet~ #wet;
#X obj 254 497 outlet~ #dry;
#X connect 0 0 2 0;
#X connect 1 0 11 0;
#X connect 2 0 3 0;
#X connect 2 0 15 0;
#X connect 4 0 3 0;
#X connect 4 0 14 0;
#X connect 5 0 4 1;
#X connect 6 0 2 1;
#X connect 7 0 10 0;
#X connect 8 0 4 0;
#X connect 10 0 6 0;
#X connect 11 0 5 0;
#X restore 39 266 pd pan_core;
#X text 256 437 Adapted from [equal_power_pan~] \, Hans-Christoph Steiner \, 2004;
#X text 411 449 comment;
#X obj 128 46 inlet~;
#X obj 145 332 outlet~ #dry;
#X obj 256 332 outlet~ #wet;
#X connect 0 0 8 0;
#X connect 1 0 7 0;
#X connect 3 0 4 0;
#X connect 4 0 7 0;
#X connect 5 0 8 1;
#X connect 6 0 8 3;
#X connect 7 0 5 0;
#X connect 7 0 6 0;
#X connect 8 0 2 0;
#X connect 8 1 12 0;
#X connect 8 2 13 0;
#X connect 11 0 8 2;
#X restore -346 339 pd equal_power_crossfade;
#X obj -378 -180 inlet~;
#X obj 358 19 tgl 36 0 \$0-switch \$0-switchr On/Off -5 -10 0 15 #e4e4e4 #4d4d4d #373737 0 1;
#X obj -421 -111 + 1;
#X obj -421 -76 gate~ 2 1;
#X obj -346 -5 nop~;
#X obj 356 65 bng 40 250 50 0 empty empty Tap\ tempo -5 -5 0 10 #dfdfdf #000000 #000000;
#X msg 17 191 set \$1;
#X msg -41 191 set \$1, f 7;
#X msg 297 30 set \$1;
#X obj 256 14 hsl 90 17 20 200 0 0 empty empty bpm -2 -6 0 10 #e4e4e4 #4d4d4d #373737 0 1;
#X obj 142 47 hsl 100 15 100 20000 1 0 empty empty LPF\ Freq 4 8 0 10 #fcfcfc #000000 #000000 0 1;
#X obj 142 85 hsl 100 15 0.1 100 1 0 empty empty LPF\ Q 4 8 0 10 #fcfcfc #000000 #000000 0 1;
#X msg 183 62 set \$1;
#X msg 183 102 set \$1;
#N canvas 0 50 450 300 lpf 0;
#X obj 159 267 hv.filter~ lowpass 1000 2;
#X obj 302 215 line;
#X obj 462 210 line;
#X msg 462 188 \$1 100;
#X msg 302 193 \$1 1000;
#X obj 159 167 inlet~;
#X obj 159 369 outlet~;
#X obj 302 168 r \$0-lpffreq;
#X obj 462 168 r \$0-lpfq;
#X text 494 88 made from scratch \, wanted a lowpass filter in the chain \, however couldn't apply it in the feedback chain as it causes a higher feedback loop (likely from q peak at selected frequency. \; Consider using a low shelf with gain in loop for next version;
#X connect 0 0 6 0;
#X connect 1 0 0 1;
#X connect 2 0 0 2;
#X connect 3 0 2 0;
#X connect 4 0 1 0;
#X connect 5 0 0 0;
#X connect 7 0 4 0;
#X connect 8 0 3 0;
#X restore -322 257 pd lpf;
#X obj -322 233 delread4~ delayeffect;
#X obj -322 281 *~ 0.5;
#N canvas 0 50 450 300 timemod 0;
#X obj 400 129 inlet;
#X obj 400 655 outlet;
#X obj 400 594 +;
#X obj 503 523 t b f;
#X floatatom 400 623 8 0 0 0 - - - 12;
#X obj 503 279 hv.lfo sine;
#X msg 585 221 0.5;
#X floatatom 503 389 11 0 0 0 empty - - 12;
#X msg 585 247 \$0;
#X obj 503 455 - 0.5;
#X floatatom 400 402 7 0 0 0 delay\ time - - 12;
#X obj 503 352 * 1;
#X obj 585 166 route 0;
#X text 504 587 sums delay time with modulated time;
#X obj 503 417 change;
#X msg 756 253 0;
#X obj 585 193 t b b;
#X obj 756 221 del 2000 1 msec;
#X text 636 220 reset phase and time;
#X obj 771 109 note 475 14 Inter empty 0 55 55 55 0 228 228 228 0 0 this module was made to oscillate the delay time up and down +-5msec with an adjustable frequency for the rate of oscillation. By changing the rate of change of the delay time and the depth of the delay we get a time modulating effect on the delay which sounds slightly analog.;
#X text 548 454 fluctuate value above and below time (bipolar) \, change to zero for positive unipolar or apply a negative multiplier for negative unipolar.;
#X text 778 47 inspired by this discussion \; https://hyp.is/x41tdqRuEe6Xp1-0nsoBkQ/www.reddit.com/r/guitarpedals/comments/75blug/modulated_delaya_loaded_term_but_heres_whats/;
#X obj 503 129 r \$0-mod-rate;
#X obj 535 314 r \$0-mod-depth;
#X connect 0 0 10 0;
#X connect 2 0 4 0;
#X connect 3 0 2 0;
#X connect 3 1 2 1;
#X connect 4 0 1 0;
#X connect 5 0 11 0;
#X connect 6 0 8 0;
#X connect 7 0 14 0;
#X connect 8 0 5 1;
#X connect 9 0 3 0;
#X connect 10 0 2 0;
#X connect 11 0 7 0;
#X connect 12 0 16 0;
#X connect 14 0 9 0;
#X connect 15 0 3 0;
#X connect 16 0 6 0;
#X connect 16 1 17 0;
#X connect 17 0 15 0;
#X connect 22 0 5 0;
#X connect 22 0 12 0;
#X connect 23 0 11 1;
#X restore -322 205 pd timemod;
#X msg 79 170 set \$1;
#X obj 79 111 knob 50 0 5 0 0 empty empty #E4E4E4 #B7B7B7 #4D4D4D 1 0 0 0 1 270 0 0 0;
#X text -859 146 simple delay effect from https://guitarextended.wordpress.com/2011/12/12/creating-a-simple-effect-with-pd/;
#X obj 356 -341 inlet;
#X obj 37 171 nbx 4 14 0 1 0 0 \$0-feedback \$0-feedbackr empty 0 -8 0 10 #e4e4e4 #373737 #373737 0 256;
#X obj 0 171 nbx 3 14 50 10000 0 0 \$0-time \$0-timer empty 0 -8 0 10 #e4e4e4 #373737 #373737 0 256;
#X obj 253 31 nbx 4 18 20 200 0 0 \$0-bpm \$0-bpmr empty 0 -8 0 10 #e4e4e4 #373737 #373737 0 256;
#X obj 139 62 nbx 4 12 100 20000 0 0 \$0-lpffreq \$0-lpffreqr empty 0 -8 0 10 #e4e4e4 #373737 #373737 0 256;
#X obj 139 101 nbx 4 12 0.1 100 0 0 \$0-lpfq \$0-lpfqr empty 0 -8 0 10 #e4e4e4 #373737 #373737 0 256;
#X obj 79 160 nbx 5 12 0 5 0 0 \$0-mod-rate \$0-mod-rater Rate\ (Hz) 0 -5 0 10 #e4e4e4 #373737 #373737 0 256;
#X text -796 227 todo: freeze function with active input? \;;
#N canvas 176 96 1840 1026 meter2 1;
#X obj 26 12 vu 10 80 \$0-R empty -1 -8 0 10 #000000 #000000 1 0;
#X obj 7 12 vu 10 80 \$0-L empty -1 -8 0 10 #000000 #000000 0 0;
#X obj 117 -140 inlet~;
#X obj 206 -138 inlet~;
#X obj 141 33 pack;
#X obj 290 25 pack;
#X text 362 33 Alexandre Torres Porres (2016);
#X text 360 52 Part of ELSE \; https://github.com/porres/pd-else;
#X obj -1 -1 cnv 1 6 1 empty empty empty 20 12 0 14 #000000 #404040 0;
#X obj 63 -1 cnv 1 6 1 empty empty empty 20 12 0 14 #000000 #404040 0;
#X obj 63 132 cnv 1 6 1 empty empty empty 20 12 0 14 #000000 #404040 0;
#X obj -1 132 cnv 1 6 1 empty empty empty 20 12 0 14 #000000 #404040 0;
#X obj 30 132 cnv 1 7 1 empty empty empty 20 12 0 14 #000000 #404040 0;
#X obj 207 171 outlet~;
#X obj 117 171 outlet~;
#X obj 269 171 outlet;
#X obj 269 131 list;
#X obj 378 -49 declare -path else;
#X obj 135 -90 snake~ out;
#N canvas 275 222 423 406 vu 0;
#X obj 84 57 inlet~;
#X obj 84 202 env~ 1024;
#X obj 176 171 abs~;
#X obj 176 236 snapshot~;
#X obj 176 269 rmstodb;
#X obj 176 201 slop~ 0 0 0 0 1e+09;
#X obj 84 236 t f b;
#X obj 84 277 - 100;
#X obj 176 294 - 100;
#X obj 242 174 expr 1000 / $f1;
#X obj 242 132 else/initmess 500;
#X obj 84 347 outlet;
#X obj 176 347 outlet;
#X connect 0 0 1 0;
#X connect 0 0 2 0;
#X connect 1 0 6 0;
#X connect 2 0 5 0;
#X connect 3 0 4 0;
#X connect 4 0 8 0;
#X connect 5 0 3 0;
#X connect 6 0 7 0;
#X connect 6 1 3 0;
#X connect 7 0 11 0;
#X connect 8 0 12 0;
#X connect 9 0 5 3;
#X connect 10 0 9 0;
#X restore 135 -48 pd vu;
#N canvas 275 222 423 406 vu 0;
#X obj 84 57 inlet~;
#X obj 84 202 env~ 1024;
#X obj 176 171 abs~;
#X obj 176 236 snapshot~;
#X obj 176 269 rmstodb;
#X obj 176 201 slop~ 0 0 0 0 1e+09;
#X obj 84 236 t f b;
#X obj 84 277 - 100;
#X obj 176 294 - 100;
#X obj 242 174 expr 1000 / $f1;
#X obj 242 132 else/initmess 500;
#X obj 84 347 outlet;
#X obj 176 347 outlet;
#X connect 0 0 1 0;
#X connect 0 0 2 0;
#X connect 1 0 6 0;
#X connect 2 0 5 0;
#X connect 3 0 4 0;
#X connect 4 0 8 0;
#X connect 5 0 3 0;
#X connect 6 0 7 0;
#X connect 6 1 3 0;
#X connect 7 0 11 0;
#X connect 8 0 12 0;
#X connect 9 0 5 3;
#X connect 10 0 9 0;
#X restore 290 -46 pd vu;
#X connect 2 0 14 0;
#X connect 2 0 18 0;
#X connect 3 0 13 0;
#X connect 3 0 20 0;
#X connect 4 0 16 0;
#X connect 5 0 16 1;
#X connect 16 0 15 0;
#X connect 18 0 19 0;
#X connect 18 1 20 0;
#X connect 19 0 4 0;
#X connect 19 0 1 0;
#X connect 19 1 4 1;
#X connect 19 1 1 1;
#X connect 20 0 5 0;
#X connect 20 0 0 0;
#X connect 20 1 5 1;
#X connect 20 1 0 1;
#X coords 0 0 1 1 36 90 2 0 0;
#X restore 357 107 pd meter2;
#N canvas 304 224 1840 1026 presets 1;
#X obj 317 55 savestate;
#X msg 363 90 export;
#X obj 9 13 hradio 14 1 0 6 empty \$0-radio Load\ preset 0 4 0 10 #aaaaaa #000000 #000000 0;
#N canvas 356 221 694 431 shift 0;
#X msg 137 214 save;
#X msg 218 214 load;
#X obj 106 264 else/insert;
#X obj 218 293 s \$0-radio;
#X obj 175 95 keyname;
#X obj 214 117 select Shift_L;
#X msg 214 139 1;
#X msg 295 138 0;
#X obj 199 166 &&;
#X obj 199 188 sel 1 0;
#X obj 106 35 inlet;
#X obj 106 344 outlet;
#X msg 218 242 color #aaaaaa #000000 #000000 \, label Load\ preset;
#X msg 227 270 color #ff5050 #000000 #000000 \, label Save\ preset;
#X connect 0 0 2 1;
#X connect 0 0 13 0;
#X connect 1 0 2 1;
#X connect 1 0 12 0;
#X connect 2 0 11 0;
#X connect 4 0 8 0;
#X connect 4 1 5 0;
#X connect 5 0 6 0;
#X connect 5 1 7 0;
#X connect 6 0 8 1;
#X connect 7 0 8 1;
#X connect 8 0 9 0;
#X connect 9 0 0 0;
#X connect 9 1 1 0;
#X connect 10 0 2 0;
#X connect 12 0 3 0;
#X connect 13 0 3 0;
#X restore 317 24 pd shift;
#X obj 34 216 f \$0;
#X obj 77 304 pick;
#X obj 90 216 + 1;
#X obj 77 243 del 10 1 msec;
#X text 636 193 preset variables;
#X text 155 -36 adapted from advanced examples from ELSE presets;
#X text 77 193 preset effect names;
#X obj 1 -29 inlet;
#X text 622 66 read last saved file;
#X msg 433 90 write;
#X text 491 93 write to text file;
#X obj 52 -72 loadbang;
#X obj 420 40 loadbang;
#X msg 61 638 \; \$1-presetlabelr label \$2 \; \$1-switchr \$3 \; \$1-timer \$4 \; \$1-feedbackr \$5 \; \$1-mod-depthr \$6 \; \$1-mod-rater \$7 \; \$1-clearr \$8 \; \$1-lpffreqr \$9 \; \$1-lpfqr \$10 \; \$1-wetr \$11 \; \$1-bpmr \$12 \; \$1-delay-value-fractr \$13 \; \$1-delay-value-fracbr \$14 \; \$1-timesig-fractr \$15 \; \$1-timesig-fracbr \$16 \;;
#X obj 433 177 t b;
#X obj -1 89 t b f;
#X obj 524 223 r \$0-4;
#X obj 600 223 r \$0-5;
#X obj 710 223 r \$0-6;
#X obj 835 223 r \$0-7;
#X obj 955 223 r \$0-8;
#X obj 1043 223 r \$0-9;
#X obj 479 300 r \$0-10;
#X obj 555 300 r \$0-11;
#X obj 632 300 r \$0-12;
#X obj 710 299 r \$0-13;
#X obj 860 300 r \$0-14;
#X obj 1015 300 r \$0-15;
#X obj 555 343 nbx 4 18 -1e+37 1e+37 0 0 empty empty empty 0 -8 0 10 #e4e4e4 #373737 #373737 0 256;
#X obj 632 343 nbx 4 18 -1e+37 1e+37 0 0 empty empty empty 0 -8 0 10 #e4e4e4 #373737 #373737 0 256;
#X obj 710 343 nbx 4 18 -1e+37 1e+37 0 0 empty empty empty 0 -8 0 10 #e4e4e4 #373737 #373737 0 256;
#X obj 524 266 nbx 4 18 -1e+37 1e+37 0 0 empty empty empty 0 -8 0 10 #e4e4e4 #373737 #373737 0 256;
#X obj 710 266 nbx 4 18 -1e+37 1e+37 0 0 empty empty empty 0 -8 0 10 #e4e4e4 #373737 #373737 0 256;
#X obj 835 266 nbx 4 18 -1e+37 1e+37 0 0 empty empty empty 0 -8 0 10 #e4e4e4 #373737 #373737 0 256;
#X obj 955 266 nbx 4 18 -1e+37 1e+37 0 0 empty empty empty 0 -8 0 10 #e4e4e4 #373737 #373737 0 256;
#X obj 1043 266 nbx 4 18 -1e+37 1e+37 0 0 empty empty empty 0 -8 0 10 #e4e4e4 #373737 #373737 0 256;
#X obj 479 343 nbx 4 18 -1e+37 1e+37 0 0 empty empty empty 0 -8 0 10 #e4e4e4 #373737 #373737 0 256;
#X obj 860 343 nbx 4 18 -1e+37 1e+37 0 0 empty empty empty 0 -8 0 10 #e4e4e4 #373737 #373737 0 256;
#X obj 1015 343 nbx 4 18 -1e+37 1e+37 0 0 empty empty empty 0 -8 0 10 #e4e4e4 #373737 #373737 0 256;
#X obj 600 266 nbx 4 18 -1e+37 1e+37 0 0 empty empty empty 0 -8 0 10 #e4e4e4 #373737 #373737 0 256;
#X obj 1136 343 nbx 4 18 -1e+37 1e+37 0 0 empty empty empty 0 -8 0 10 #e4e4e4 #373737 #373737 0 256;
#X obj 1136 300 r \$0-16;
#X msg 61 419 set \$1 \$2 \$3 \$4 \$5 \$6 \$7 \$8 \$9 \$10 \$11 \$12 \$13 \$14 \$15 \$16;
#X obj 61 392 pack2 f s f f f f f f f f f f f f f f;
#X obj 433 266 nbx 4 18 -1e+37 1e+37 0 0 empty empty empty 0 -8 0 10 #e4e4e4 #373737 #373737 0 256;
#X obj 433 223 r \$0-3;
#X obj 433 243 r \$0-switch;
#X obj 600 243 r \$0-feedback;
#X obj 710 243 r \$0-mod-depth;
#X obj 835 243 r \$0-mod-rate;
#X obj 479 320 r \$0-lpfq;
#X obj 555 321 r \$0-wet;
#X obj 631 321 r \$0-bpm;
#X obj 710 321 r \$0-delay-value-fract;
#X obj 955 243 r \$0-clear;
#X obj 1043 243 r \$0-lpffreq;
#X obj 860 321 r \$0-delay-value-fracb;
#X obj 1015 321 r \$0-timesig-fract;
#X obj 1136 321 r \$0-timesig-fracb;
#X obj 524 243 r \$0-time;
#X obj 363 120 presets \\\$0-3 \\\$0-4 \\\$0-5 \\\$0-6 \\\$0-7 \\\$0-8 \\\$0-9 \\\$0-10 \\\$0-11 \\\$0-12 \\\$0-13 \\\$0-14 \\\$0-15 \\\$0-16;
#A saved \\\$0-3 0 || \\\$0-4 4000 || \\\$0-5 0 || \\\$0-6 0 || \\\$0-7 0 || \\\$0-8 1 || \\\$0-9 20000 || \\\$0-10 1 || \\\$0-11 0 || \\\$0-12 60 || \\\$0-13 1 || \\\$0-14 1 || \\\$0-15 4 || \\\$0-16 4 || \; \\\$0-3 1 || \\\$0-4 750 || \\\$0-5 0.3 || \\\$0-6 0 || \\\$0-7 0 || \\\$0-8 1 || \\\$0-9 20000 || \\\$0-10 1 || \\\$0-11 0.3 || \\\$0-12 60 || \\\$0-13 3 || \\\$0-14 16 || \\\$0-15 4 || \\\$0-16 4 || \; \\\$0-3 1 || \\\$0-4 500 || \\\$0-5 0.3 || \\\$0-6 0 || \\\$0-7 0 || \\\$0-8 1 || \\\$0-9 20000 || \\\$0-10 1 || \\\$0-11 0.3 || \\\$0-12 60 || \\\$0-13 1 || \\\$0-14 8 || \\\$0-15 4 || \\\$0-16 4 || \; \\\$0-3 1 || \\\$0-4 498.27 || \\\$0-5 0.4 || \\\$0-6 0 || \\\$0-7 0 || \\\$0-8 1 || \\\$0-9 500 || \\\$0-10 1 || \\\$0-11 0.4 || \\\$0-12 60 || \\\$0-13 1 || \\\$0-14 4 || \\\$0-15 4 || \\\$0-16 4 || \; \\\$0-3 1 || \\\$0-4 500 || \\\$0-5 0.4 || \\\$0-6 1 || \\\$0-7 2 || \\\$0-8 1 || \\\$0-9 2000 || \\\$0-10 1 || \\\$0-11 0.3 || \\\$0-12 60 || \\\$0-13 1 || \\\$0-14 8 || \\\$0-15 4 || \\\$0-16 4 || \; \\\$0-3 1 || \\\$0-4 500 || \\\$0-5 0.4 || \\\$0-6 4 || \\\$0-7 1 || \\\$0-8 1 || \\\$0-9 2000 || \\\$0-10 1 || \\\$0-11 0.3 || \\\$0-12 60 || \\\$0-13 1 || \\\$0-14 8 || \\\$0-15 4 || \\\$0-16 4 || \; -empty- \; -empty- \; -empty- \; -empty- \; -empty- \; -empty- \; -empty- \; -empty- \; -empty- \; -empty- \; -empty- \; -empty- \; -empty- \; -empty- \; -empty- \; -empty- \; -empty- \; -empty- \; -empty- \; -empty- \; -empty- \; -empty- \; -empty- \; -empty- \; -empty- \; -empty- \; -empty- \; -empty- \; -empty- \; -empty- \; -empty- \; -empty- \; -empty- \; -empty- \; -empty- \; -empty- \; -empty- \; -empty- \; -empty- \; -empty- \; -empty- \; -empty- \; -empty- \; -empty- \; -empty- \; -empty- \; -empty- \; -empty- \; -empty- \; -empty- \; -empty- \; -empty- \; -empty- \; -empty- \; -empty- \; -empty- \; -empty- \; -empty- \;;
#X msg 420 63 read eff-moddelay-preset.txt;
#X msg 52 -48 size 14;
#X msg 77 275 bypass clean-.8 clean-8 dark lht.mod hvy.mod;
#X listbox 61 472 21 0 0 0 - - - 0;
#X obj -61 471 del 100 1 msec;
#X text -232 487 push when preset selected;
#X text -202 462 store running values;
#X obj 61 509 store;
#A saved;
#X obj -61 516 del 100 1 msec;
#X msg -8 495 clear;
#X obj -61 449 del 100 1 msec;
#X obj 0 13 hradio 11 1 0 1 empty \$0-presetlabelr hvy.mod 5 -5 0 10 #e4e4e4 #4d4d4d #373737 0;
#X connect 0 0 64 0;
#X connect 0 1 1 0;
#X connect 1 0 64 0;
#X connect 2 0 3 0;
#X connect 2 0 19 0;
#X connect 3 0 64 0;
#X connect 4 0 47 0;
#X connect 5 0 47 1;
#X connect 6 0 5 1;
#X connect 7 0 67 0;
#X connect 11 0 2 0;
#X connect 13 0 64 0;
#X connect 15 0 66 0;
#X connect 16 0 65 0;
#X connect 18 0 36 0;
#X connect 18 0 38 0;
#X connect 18 0 42 0;
#X connect 18 0 44 0;
#X connect 18 0 43 0;
#X connect 18 0 41 0;
#X connect 18 0 35 0;
#X connect 18 0 40 0;
#X connect 18 0 32 0;
#X connect 18 0 33 0;
#X connect 18 0 34 0;
#X connect 18 0 37 0;
#X connect 18 0 39 0;
#X connect 18 0 48 0;
#X connect 19 0 4 0;
#X connect 19 0 7 0;
#X connect 19 0 18 0;
#X connect 19 0 75 0;
#X connect 19 1 6 0;
#X connect 20 0 35 0;
#X connect 21 0 43 0;
#X connect 22 0 36 0;
#X connect 23 0 37 0;
#X connect 24 0 38 0;
#X connect 25 0 39 0;
#X connect 26 0 40 0;
#X connect 27 0 32 0;
#X connect 28 0 33 0;
#X connect 29 0 34 0;
#X connect 30 0 41 0;
#X connect 31 0 42 0;
#X connect 32 0 47 10;
#X connect 33 0 47 11;
#X connect 34 0 47 12;
#X connect 35 0 47 3;
#X connect 36 0 47 5;
#X connect 37 0 47 6;
#X connect 38 0 47 7;
#X connect 39 0 47 8;
#X connect 40 0 47 9;
#X connect 41 0 47 13;
#X connect 42 0 47 14;
#X connect 43 0 47 4;
#X connect 44 0 47 15;
#X connect 45 0 44 0;
#X connect 46 0 68 0;
#X connect 47 0 46 0;
#X connect 48 0 47 2;
#X connect 49 0 48 0;
#X connect 50 0 48 0;
#X connect 51 0 43 0;
#X connect 52 0 36 0;
#X connect 53 0 37 0;
#X connect 54 0 40 0;
#X connect 55 0 32 0;
#X connect 56 0 33 0;
#X connect 57 0 34 0;
#X connect 58 0 38 0;
#X connect 59 0 39 0;
#X connect 60 0 41 0;
#X connect 61 0 42 0;
#X connect 62 0 44 0;
#X connect 63 0 35 0;
#X connect 64 0 0 0;
#X connect 65 0 64 0;
#X connect 66 0 2 0;
#X connect 67 0 5 0;
#X connect 68 0 72 1;
#X connect 69 0 68 0;
#X connect 69 0 73 0;
#X connect 72 0 17 0;
#X connect 73 0 72 0;
#X connect 74 0 72 0;
#X connect 75 0 74 0;
#X connect 75 0 69 0;
#X coords 0 0 1 1 95 28 2 0 0;
#X restore 253 169 pd presets;
#X obj 139 148 nbx 4 12 -1e+37 1e+37 0 0 \$0-wet \$0-wetr empty 0 -8 0 10 #e4e4e4 #373737 #373737 0 256;
#X msg 183 148 set \$1;
#X obj 142 130 hsl 100 15 0 1 0 0 empty empty Dry/Wet 4 8 0 10 #e4e4e4 #4d4d4d #373737 0 1;
#X obj 78 39 knob 50 0 5 0 0 empty empty #E4E4E4 #B7B7B7 #4D4D4D 1 0 0 0 1 270 0 0 0;
#X obj 78 88 nbx 6 12 0 10 0 0 \$0-mod-depth \$0-mod-depthr Depth\ (+-\ ms) 0 -5 0 8 #e4e4e4 #373737 #373737 0 256;
#X msg 78 97 set \$1, f 7;
#X obj 464 35 tap;
#X obj 464 56 mov.avg 4;
#X obj -278 172 r \$0-time;
#X obj 623 694 s \$0-timer;
#X obj 824 269 r \$0-bpm;
#X obj 464 74 s \$0-bpmr;
#X obj -278 124 r \$0-feedback;
#X text -228 204 modulating subpatch;
#X text 543 44 made from scratch \; receive from tap button gui \; average of last n=4 values;
#X obj 253 52 knob 42 1 16 0 0 \$0-delay-value-fract \$0-delay-value-fractr #E4E4E4 #B7B7B7 #4D4D4D 1 0 16 1 1 270 0 0 1;
#X obj 253 92 knob 42 1 16 0 0 \$0-delay-value-fracb \$0-delay-value-fracbr #E4E4E4 #B7B7B7 #4D4D4D 1 0 16 1 1 270 0 0 1;
#X obj 624 292 nbx 4 18 -1e+37 1e+37 0 0 empty empty empty 0 -8 0 10 #e4e4e4 #373737 #373737 0 256;
#X obj 563 292 nbx 4 18 -1e+37 1e+37 0 0 empty empty empty 0 -8 0 10 #e4e4e4 #373737 #373737 0 256;
#X obj 304 82 knob 42 1 12 0 0 \$0-timesig-fract \$0-timesig-fractr #E4E4E4 #B7B7B7 #4D4D4D 1 0 12 1 1 270 0 0 1;
#X obj 304 125 knob 42 1 12 0 0 \$0-timesig-fracb \$0-timesig-fracbr #E4E4E4 #B7B7B7 #4D4D4D 1 0 12 1 1 270 0 0 1;
#X obj 758 292 nbx 4 18 -1e+37 1e+37 0 0 empty empty empty 0 -8 0 10 #e4e4e4 #373737 #373737 0 256;
#X obj 697 292 nbx 4 18 -1e+37 1e+37 0 0 empty empty empty 0 -8 0 10 #e4e4e4 #373737 #373737 0 256;
#X obj 623 436 display;
#X obj 624 346 t b;
#X msg 779 368 \$1 / \$2;
#X obj 623 626 nbx 5 18 -1e+37 1e+37 0 0 empty empty empty 0 -8 0 10 #e4e4e4 #373737 #373737 0 256;
#X obj 623 583 nbx 4 18 -1e+37 1e+37 0 0 empty empty empty 0 -8 0 10 #e4e4e4 #373737 #373737 0 256;
#X obj 623 604 bpm;
#X msg 779 438 \$3 / \$4;
#X obj 698 626 nbx 4 18 -1e+37 1e+37 0 0 empty empty empty 0 -8 0 10 #e4e4e4 #373737 #373737 0 256;
#X obj 623 647 *;
#X obj 623 668 nbx 5 18 -1e+37 1e+37 0 0 empty empty empty 0 -8 0 10 #e4e4e4 #373737 #373737 0 256;
#X text 794 529 pass through bpm;
#X text 794 548 formula to multiply delay time by delay-value and note-value;
#X obj 624 206 r \$0-delay-value-fracb;
#X obj 563 186 r \$0-delay-value-fract;
#X obj 697 228 r \$0-timesig-fract;
#X obj 758 246 r \$0-timesig-fracb;
#X obj 824 292 nbx 4 18 -1e+37 1e+37 0 0 empty empty empty 0 -8 0 10 #e4e4e4 #373737 #373737 0 256;
#X listbox 295 52 7 0 0 3 delay\ value \$0-delay-value-fracr - 10;
#X listbox 253 150 7 0 0 2 time\ sig \$0-timesig-fracr - 10;
#X obj 779 459 s \$0-timesig-fracr;
#X obj 779 387 s \$0-delay-value-fracr;
#X text 916 420 to delay/time signature guis;
#X text 803 613 delay/time signature multiplier;
#X obj 623 415 pack f f f f f;
#X obj 623 474 unpack f f f f f;
#X obj 623 365 del 10 1 msec;
#X obj 623 530 expr $f5 \; (($f1 / $f2)*$f4*60)/$f5 \;;
#X obj 139 16 bng 25 250 50 0 empty \$0-clearr clear 0 5 0 10 #e4e4e4 #4d4d4d #373737;
#X text -248 261 low pass filter \; (after loop \, haven't implemented inside loop yet);
#X obj -201 306 r \$0-wet;
#X obj -274 400 s~ \$0-meterdryr;
#X obj -201 427 s~ \$0-meterwetr;
#X obj 464 111 r~ \$0-meterdryr;
#X obj 464 132 r~ \$0-meterwetr;
#X obj 509 -64 s \$0-timesig-fracbr;
#X obj 509 -87 s \$0-timesig-fractr;
#X obj 439 -192 s \$0-delay-value-fractr;
#X obj 439 -169 s \$0-delay-value-fracbr;
#X text 399 -313 route global environment time variables;
#X obj 439 -218 unpack f f;
#X msg 439 -241 \$1 \$2;
#X msg 509 -136 \$1 \$2;
#X obj 509 -110 unpack f f;
#X obj 356 -289 route preset tap delval timesig;
#X connect 4 0 6 0;
#X connect 5 0 34 0;
#X connect 7 0 33 0;
#X connect 8 0 6 0;
#X connect 10 0 9 0;
#X connect 10 1 95 0;
#X connect 10 2 96 0;
#X connect 11 0 14 1;
#X connect 12 0 13 0;
#X connect 13 0 14 0;
#X connect 14 0 9 0;
#X connect 14 1 15 0;
#X connect 15 0 10 0;
#X connect 15 0 6 0;
#X connect 16 0 48 0;
#X connect 17 0 7 0;
#X connect 18 0 5 0;
#X connect 19 0 20 0;
#X connect 20 0 35 0;
#X connect 21 0 36 0;
#X connect 22 0 37 0;
#X connect 23 0 21 0;
#X connect 24 0 22 0;
#X connect 25 0 27 0;
#X connect 26 0 25 0;
#X connect 26 0 4 0;
#X connect 27 0 10 1;
#X connect 28 0 26 0;
#X connect 29 0 30 0;
#X connect 30 0 38 0;
#X connect 32 0 108 0;
#X connect 33 0 17 0;
#X connect 34 0 18 0;
#X connect 36 0 23 0;
#X connect 37 0 24 0;
#X connect 38 0 29 0;
#X connect 42 0 43 0;
#X connect 43 0 44 0;
#X connect 44 0 42 0;
#X connect 45 0 46 0;
#X connect 46 0 47 0;
#X connect 47 0 45 0;
#X connect 48 0 49 0;
#X connect 49 0 53 0;
#X connect 50 0 28 0;
#X connect 52 0 81 0;
#X connect 54 0 4 1;
#X connect 59 0 66 0;
#X connect 59 0 88 1;
#X connect 60 0 66 0;
#X connect 60 0 88 0;
#X connect 63 0 66 0;
#X connect 63 0 88 3;
#X connect 64 0 66 0;
#X connect 64 0 88 2;
#X connect 65 0 89 0;
#X connect 65 0 71 0;
#X connect 65 0 67 0;
#X connect 66 0 90 0;
#X connect 67 0 85 0;
#X connect 68 0 73 0;
#X connect 69 0 70 0;
#X connect 70 0 68 0;
#X connect 71 0 84 0;
#X connect 72 0 73 1;
#X connect 73 0 74 0;
#X connect 74 0 51 0;
#X connect 77 0 59 0;
#X connect 78 0 60 0;
#X connect 79 0 64 0;
#X connect 80 0 63 0;
#X connect 81 0 66 0;
#X connect 81 0 88 4;
#X connect 88 0 65 0;
#X connect 89 0 91 0;
#X connect 89 1 91 1;
#X connect 89 2 91 2;
#X connect 89 3 91 3;
#X connect 89 4 91 4;
#X connect 90 0 88 0;
#X connect 91 0 69 0;
#X connect 91 1 72 0;
#X connect 92 0 8 0;
#X connect 94 0 10 2;
#X connect 97 0 40 0;
#X connect 98 0 40 1;
#X connect 104 0 101 0;
#X connect 104 1 102 0;
#X connect 105 0 104 0;
#X connect 106 0 107 0;
#X connect 107 0 100 0;
#X connect 107 1 99 0;
#X connect 108 0 41 0;
#X connect 108 1 16 0;
#X connect 108 2 105 0;
#X connect 108 3 106 0;
#X coords 0 0 1 1 397 197 1 -1 0;
