#N canvas 379 67 553 607 12;
#X declare -path else;
#X obj 210 147 cnv 15 199 199 empty empty empty 20 12 0 14 #dbdbdb #373737 0;
#X obj 234 156 note 104 24 Inter empty 5 54 54 54 0 187 187 187 1 1 PHASER;
#X obj 224 238 else/knob 41 0.1 5 4 0.1 empty empty #dfdfdf #bbbbbb #000000 0 0 0 0 1 320 0 0 0.1;
#X obj 287 238 else/knob 41 0.0999 5 -2 5 empty empty #dfdfdf #afafaf black 0 0 0 0 1 320 0 0 0.0999;
#X obj 359 238 else/knob 41 -1 1 0 0 empty empty #9f9f9f #afafaf black 0 0 0 0 1 320 0 0 0;
#X text 352 221 Dry/Wet;
#X text 228 221 Rate;
#X text 297 221 Q;
#X msg 231 293 set \$1;
#N canvas 171 120 601 317 init-savestate 0;
#X obj 74 87 savestate;
#X obj 320 171 declare -path else;
#X obj 49 125 list;
#X obj 49 43 loadbang;
#X obj 134 119 else/var \$0-rate \$0-q \$0-wet;
#X obj 49 222 else/dispatch \$0-set-rate \$0-set-q \$0-set-wet;
#X obj 49 171 else/default 0.1 3 0.5;
#X connect 0 0 2 1;
#X connect 0 1 4 0;
#X connect 2 0 6 0;
#X connect 3 0 2 0;
#X connect 4 0 0 0;
#X connect 6 0 5 0;
#X restore 727 441 pd init-savestate;
#X obj 231 401 r \$0-rate;
#X obj 89 451 phaser~ 6, f 12;
#X obj 231 498 mtof~;
#X listbox 569 452 20 0 0 0 - - - 0;
#X obj 569 428 freq2midi;
#X msg 569 404 100 2000;
#X obj 302 516 mtof~;
#X obj 302 492 rescale~ 43 95;
#X obj 231 427 osc~;
#X obj 231 457 rescale~ 50 2000;
#X obj -42 651 outlet~;
#X obj 367 168 tgl 36 0 \$0-switch \$0-switchr On/Off -5 -10 0 15 #e4e4e4 #4d4d4d #373737 0 1;
#X obj -42 265 + 1;
#X obj -42 297 gate~ 2 1;
#X obj 1 267 inlet~;
#X text 559 168 default in plugdata;
#X obj 339 22 inlet;
#X obj 89 325 r \$0-wet;
#X obj 158 325 r \$0-q;
#X msg 89 350 wet \$1;
#X msg 158 350 q \$1;
#N canvas 0 50 450 300 presets 1;
#X obj 319 57 savestate;
#X msg 365 92 export;
#X obj 17 10 hradio 21 1 0 3 empty \$0-radio Load\ preset 0 4 0 10 #aaaaaa #000000 #000000 0;
#N canvas 356 221 694 431 shift 0;
#X msg 137 214 save;
#X msg 218 214 load;
#X obj 106 264 else/insert;
#X obj 218 293 s \$0-radio;
#X obj 175 95 keyname;
#X obj 214 117 select Shift_L;
#X msg 214 139 1;
#X msg 295 138 0;
#X obj 199 166 &&;
#X obj 199 188 sel 1 0;
#X obj 106 35 inlet;
#X obj 106 344 outlet;
#X msg 218 242 color #aaaaaa #000000 #000000 \, label Load\ preset;
#X msg 227 270 color #ff5050 #000000 #000000 \, label Save\ preset;
#X connect 0 0 2 1;
#X connect 0 0 13 0;
#X connect 1 0 2 1;
#X connect 1 0 12 0;
#X connect 2 0 11 0;
#X connect 4 0 8 0;
#X connect 4 1 5 0;
#X connect 5 0 6 0;
#X connect 5 1 7 0;
#X connect 6 0 8 1;
#X connect 7 0 8 1;
#X connect 8 0 9 0;
#X connect 9 0 0 0;
#X connect 9 1 1 0;
#X connect 10 0 2 0;
#X connect 12 0 3 0;
#X connect 13 0 3 0;
#X restore 319 26 pd shift;
#X obj 62 201 f \$0;
#X obj 342 188 r \$0-A;
#X obj 418 188 r \$0-B;
#X obj 488 188 r \$0-C;
#X obj 562 188 r \$0-D;
#X obj 342 253 nbx 4 18 -1e+37 1e+37 0 0 empty empty empty 0 -8 0 10 #e4e4e4 #373737 #373737 0 256;
#X obj 418 253 nbx 4 18 -1e+37 1e+37 0 0 empty empty empty 0 -8 0 10 #e4e4e4 #373737 #373737 0 256;
#X obj 488 253 nbx 4 18 -1e+37 1e+37 0 0 empty empty empty 0 -8 0 10 #e4e4e4 #373737 #373737 0 256;
#X obj 562 253 nbx 4 18 -1e+37 1e+37 0 0 empty empty empty 0 -8 0 10 #e4e4e4 #373737 #373737 0 256;
#X obj -1 89 t f b;
#X obj 104 289 pick;
#X obj 117 201 + 1;
#X obj 104 228 del 10 1 msec;
#X text 586 166 preset variables;
#X text 85 -41 adapted from advanced examples from ELSE presets;
#X text 104 178 preset effect names;
#X obj 1 -29 inlet;
#X text 491 17 read last saved file;
#X msg 435 92 write;
#X text 435 69 write to text file;
#X msg 62 367 set \$1 \$2 \$3 \$4 \$5 \$6;
#X text -52 252 receive parameters;
#X text -55 543 send parameters;
#X msg 419 45 read eff-phaser-preset.txt;
#X obj 365 132 presets \\\$0-A \\\$0-B \\\$0-C \\\$0-D;
#A saved \\\$0-A 0 || \\\$0-B 0.1 || \\\$0-C 0 || \\\$0-D 0 || \; \\\$0-A 1 || \\\$0-B 0.1 || \\\$0-C 6 || \\\$0-D 0.5 || \; \\\$0-A 1 || \\\$0-B 0.2 || \\\$0-C 10 || \\\$0-D 0.7 || \; -empty- \; -empty- \; -empty- \; -empty- \; -empty- \; -empty- \; -empty- \; -empty- \; -empty- \; -empty- \; -empty- \; -empty- \; -empty- \; -empty- \; -empty- \; -empty- \; -empty- \; -empty- \; -empty- \; -empty- \; -empty- \; -empty- \; -empty- \; -empty- \; -empty- \; -empty- \; -empty- \; -empty- \; -empty- \; -empty- \; -empty- \; -empty- \; -empty- \; -empty- \; -empty- \; -empty- \; -empty- \; -empty- \; -empty- \; -empty- \; -empty- \; -empty- \; -empty- \; -empty- \; -empty- \; -empty- \; -empty- \; -empty- \; -empty- \; -empty- \; -empty- \; -empty- \; -empty- \; -empty- \; -empty- \; -empty- \; -empty- \; -empty- \; -empty- \; -empty- \; -empty- \;;
#X msg 62 540 \; \$1-presetlabelr label \$2 \; \$1-switchr \$3 \; \$1-rater \$4 \; \$1-qr \$5 \; \$1-wetr \$6 \;;
#X obj 62 340 pack2 f s f f f f;
#X obj 557 219 r \$0-wet;
#X obj 487 219 r \$0-q;
#X obj 411 219 r \$0-rate;
#X obj 324 217 r \$0-switch;
#X msg 104 259 bypass light\ rhythm thicken;
#X obj 415 4 loadbang;
#X listbox 62 407 21 0 0 0 - - - 0;
#X obj -52 399 del 100 1 msec;
#X text -223 415 push when preset selected;
#X text -193 390 store running values;
#X obj 62 444 store;
#A saved;
#X obj -52 444 del 100 1 msec;
#X msg 1 423 clear;
#X obj -52 377 del 100 1 msec;
#X obj 2 11 hradio 11 1 0 1 empty \$0-presetlabelr bypass -5 -5 0 10 #e4e4e4 #4d4d4d #373737 0;
#X connect 0 0 28 0;
#X connect 0 1 1 0;
#X connect 1 0 28 0;
#X connect 2 0 3 0;
#X connect 2 0 13 0;
#X connect 3 0 28 0;
#X connect 4 0 30 0;
#X connect 5 0 9 0;
#X connect 6 0 10 0;
#X connect 7 0 11 0;
#X connect 8 0 12 0;
#X connect 9 0 30 2;
#X connect 10 0 30 3;
#X connect 11 0 30 4;
#X connect 12 0 30 5;
#X connect 13 0 15 0;
#X connect 13 1 16 0;
#X connect 13 1 4 0;
#X connect 13 1 9 0;
#X connect 13 1 12 0;
#X connect 13 1 11 0;
#X connect 13 1 10 0;
#X connect 13 1 44 0;
#X connect 14 0 30 1;
#X connect 15 0 14 1;
#X connect 16 0 35 0;
#X connect 20 0 2 0;
#X connect 22 0 28 0;
#X connect 24 0 37 0;
#X connect 27 0 28 0;
#X connect 28 0 0 0;
#X connect 30 0 24 0;
#X connect 31 0 12 0;
#X connect 32 0 11 0;
#X connect 33 0 10 0;
#X connect 34 0 9 0;
#X connect 35 0 14 0;
#X connect 36 0 27 0;
#X connect 37 0 41 1;
#X connect 38 0 37 0;
#X connect 38 0 42 0;
#X connect 41 0 29 0;
#X connect 42 0 41 0;
#X connect 43 0 41 0;
#X connect 44 0 43 0;
#X connect 44 0 38 0;
#X coords 0 0 1 1 86 34 2 0 0;
#X restore 317 310 pd presets;
#X obj 231 275 nbx 4 18 0.1 5 0 0 \$0-rate \$0-rater empty 0 -8 0 10 #e4e4e4 #373737 #373737 0 256;
#X msg 290 293 set \$1;
#X obj 290 275 nbx 4 18 0.1 5 0 0 \$0-q \$0-qr empty 0 -8 0 10 #e4e4e4 #373737 #373737 0 256;
#X obj 356 275 nbx 4 18 -1 1 0 0 \$0-wet \$0-wetr empty 0 -8 0 10 #e4e4e4 #373737 #373737 0 256;
#X msg 356 293 set \$1;
#X text 683 408 not sure what this is for...?;
#X obj 339 51 route preset;
#X connect 2 0 32 0;
#X connect 3 0 34 0;
#X connect 4 0 35 0;
#X connect 8 0 2 0;
#X connect 10 0 18 0;
#X connect 11 0 20 0;
#X connect 14 0 13 0;
#X connect 15 0 14 0;
#X connect 17 0 16 0;
#X connect 18 0 19 0;
#X connect 19 0 12 0;
#X connect 19 0 11 1;
#X connect 21 0 22 0;
#X connect 22 0 23 0;
#X connect 23 0 20 0;
#X connect 23 1 11 0;
#X connect 24 0 23 1;
#X connect 26 0 38 0;
#X connect 27 0 29 0;
#X connect 28 0 30 0;
#X connect 28 0 11 0;
#X connect 29 0 11 0;
#X connect 32 0 8 0;
#X connect 33 0 3 0;
#X connect 34 0 33 0;
#X connect 35 0 36 0;
#X connect 36 0 4 0;
#X connect 38 0 31 0;
#X coords 0 1 100 -1 197 197 2 212 149;
