#N canvas 576 301 1053 718 12;
#X declare -path else;
#X declare -path ./Examples/audio;
#X obj 284 536 outlet~;
#X obj 284 315 *~ 1;
#X obj 123 168 tgl 25 0 empty empty Mute 0 -7 0 10 #e4e4e4 #4d4d4d #373737 0 1;
#N canvas 0 50 450 300 meter 0;
#X obj 79 186 cnv 15 50 181 empty empty empty 20 12 0 14 #e0e0e0 #404040 0;
#X obj 89 194 vu 30 160 \$0-m empty -1 -8 0 10 #000000 #000000 1 0;
#X obj 247 197 inlet~;
#X obj 302 443 pack;
#X text 409 359 Alexandre Torres Porres (2016);
#X text 407 378 Part of ELSE \; https://github.com/porres/pd-else;
#X text 409 339 [meter~]: Mono Vu meter;
#X obj 247 530 outlet~;
#X obj 302 530 outlet;
#X obj 436 258 declare -path else;
#N canvas 275 222 423 406 vu 0;
#X obj 84 57 inlet~;
#X obj 84 202 env~ 1024;
#X obj 176 171 abs~;
#X obj 176 236 snapshot~;
#X obj 176 269 rmstodb;
#X obj 176 201 slop~ 0 0 0 0 1e+09;
#X obj 84 236 t f b;
#X obj 84 277 - 100;
#X obj 176 294 - 100;
#X obj 242 174 expr 1000 / $f1;
#X obj 242 132 else/initmess 500;
#X obj 84 347 outlet;
#X obj 176 347 outlet;
#X connect 0 0 1 0;
#X connect 0 0 2 0;
#X connect 1 0 6 0;
#X connect 2 0 5 0;
#X connect 3 0 4 0;
#X connect 4 0 8 0;
#X connect 5 0 3 0;
#X connect 6 0 7 0;
#X connect 6 1 3 0;
#X connect 7 0 11 0;
#X connect 8 0 12 0;
#X connect 9 0 5 3;
#X connect 10 0 9 0;
#X restore 272 237 pd vu;
#X connect 2 0 7 0;
#X connect 2 0 10 0;
#X connect 3 0 8 0;
#X connect 10 0 3 0;
#X connect 10 0 1 0;
#X connect 10 1 3 1;
#X connect 10 1 1 1;
#X coords 0 0 1 1 38 169 2 85 190;
#X restore 154 21 pd meter;
#X obj 24 312 stack lifo;
#X obj 24 249 route 0 1;
#X msg 43 278 0;
#X obj 92 134 nbx 5 18 1e+35 1e+37 1 0 empty empty empty 0 -8 0 10 #e4e4e4 #373737 #373737 0 256;
#X obj 74 104 lin2db;
#X obj 4 0 note 185 20 Arial empty 1 0 0 0 0 228 228 228 1 0 AudioHandler;
#X obj 21 27 vradio 20 1 0 4 empty empty empty 0 -8 0 10 #dcdcdc #000000 #000000 0;
#X text 41 26 0: none;
#X obj 284 266 else/xselect~ 3 1000 1;
#X obj 126 27 vsl 20 104 0 1 0 0 empty empty In 0 -7 0 10 #e4e4e4 #4d4d4d #373737 0 1;
#X obj 24 120 setdsp~;
#X obj 123 -135 loadbang;
#X msg 123 -70 0;
#X obj 123 -104 del 10 1 msec;
#X obj 282 -11 cnv 15 243 206 empty empty empty 20 12 0 14 #b7b7b7 #4d4d4d 0;
#X obj 413 175 play.file~;
#X obj 355 148 bng 15 250 50 0 empty empty empty 17 7 0 10 #dcdcdc #000000 #000000;
#X msg 355 77 loop \$1;
#X obj 355 63 tgl 15 0 empty empty empty 17 7 0 10 #dcdcdc #000000 #000000 0 1;
#X obj 413 102 tgl 15 0 empty empty empty 17 7 0 10 #dcdcdc #000000 #000000 0 1;
#X msg 355 125 start;
#X msg 292 43 open;
#X msg 355 102 stop;
#X obj 284 215 adc~;
#X obj 404 215 brown~;
#X text 41 73 3: noise (br);
#X text 41 58 2: sample;
#X text 41 42 1: adc;
#X obj 284 -135 declare -path ./Examples/audio;
#X msg 292 -5 open Sample_115_Gm_ChordsGtr_04_714.wav;
#X msg 294 19 open Sample_85_Am_Loop_03_212_SP.wav;
#X connect 1 0 0 0;
#X connect 1 0 3 0;
#X connect 2 0 5 0;
#X connect 4 0 1 1;
#X connect 5 0 4 0;
#X connect 5 1 6 0;
#X connect 6 0 1 1;
#X connect 8 0 7 0;
#X connect 10 0 12 0;
#X connect 12 0 1 0;
#X connect 13 0 1 1;
#X connect 13 0 4 1;
#X connect 13 0 8 0;
#X connect 15 0 17 0;
#X connect 15 0 34 0;
#X connect 16 0 13 0;
#X connect 16 0 14 0;
#X connect 17 0 16 0;
#X connect 19 0 12 1;
#X connect 20 0 19 0;
#X connect 21 0 19 0;
#X connect 22 0 21 0;
#X connect 23 0 19 0;
#X connect 24 0 19 0;
#X connect 25 0 19 0;
#X connect 26 0 19 0;
#X connect 27 0 12 0;
#X connect 28 0 12 2;
#X connect 33 0 19 0;
#X connect 34 0 19 0;
#X coords 0 0 1 1 197 197 2 2 -1;
