#N canvas 0 50 450 300 12;
#X obj -320 -68 inlet~;
#X obj -320 563 outlet~;
#X obj -204 284 overdrive~;
#X obj -204 387 overdrive~;
#X obj -204 340 onepole~ 15000 Hz;
#X obj -320 206 + 1;
#X obj 1 37 knob 50 1 10 0 1 empty empty #E4E4E4 #B7B7B7 #4D4D4D 1 0 10 1 1 270 0 0 1;
#X obj 53 121 knob 50 0 1.5 0 1 empty empty #E4E4E4 #B7B7B7 #4D4D4D 1 0 0 0 1 270 0 0 0;
#X obj -320 527 *~ 1;
#X obj 160 38 meter~;
#X text 1 21 O/D 1;
#X text 1 105 OD/2;
#X obj 53 37 knob 50 100 15000 2 20 empty empty #E4E4E4 #B7B7B7 #4D4D4D 1 0 0 0 1 270 0 0 100;
#X text 48 23 Lowpass;
#X obj -5 0 note 338 20 Arial empty 1 0 0 0 0 228 228 228 1 0 Overdrive;
#X text 53 105 Level;
#X obj -2 -156 loadbang;
#X msg 93 -75 15000;
#X obj 1 121 knob 50 1 10 0 1 empty empty #E4E4E4 #B7B7B7 #4D4D4D 1 0 10 1 1 270 0 0 1;
#X obj -320 241 gate~ 2 1;
#X obj 160 8 tgl 36 0 \$0-switch \$0-switchr On/Off -5 -5 0 10 #e4e4e4 #4d4d4d #373737 0 1;
#X msg 102 140 set \$1;
#X msg 102 88 set \$1;
#X msg -63 88 set \$1;
#X msg -63 166 set \$1;
#X msg -2 -75 1;
#X text 420 139 from https://cycling74.com/tutorials/max-5-guitar-processor-part-2;
#X obj 194 -121 inlet;
#X obj 53 88 nbx 4 18 100 15000 0 0 \$0-lowpass \$0-lowpassr empty 0 -8 0 10 #e4e4e4 #373737 #373737 0 256;
#X obj 1 88 nbx 4 18 1 10 0 0 \$0-od1 \$0-od1r empty 0 -8 0 10 #e4e4e4 #373737 #373737 0 256;
#X obj 2 170 nbx 4 18 1 10 0 0 \$0-od2 \$0-od2r empty 0 -8 0 10 #e4e4e4 #373737 #373737 0 256;
#X obj 53 170 nbx 4 18 0 1.5 0 0 \$0-level \$0-levelr empty 0 -8 0 10 #e4e4e4 #373737 #373737 0 256;
#N canvas 0 50 450 300 presets 1;
#X obj 319 57 savestate;
#X msg 365 92 export;
#X obj 1 10 hradio 21 1 0 4 empty \$0-radio Load\ preset 0 4 0 10 #aaaaaa #000000 #000000 0;
#N canvas 356 221 694 431 shift 0;
#X msg 137 214 save;
#X msg 218 214 load;
#X obj 106 264 else/insert;
#X obj 218 293 s \$0-radio;
#X obj 175 95 keyname;
#X obj 214 117 select Shift_L;
#X msg 214 139 1;
#X msg 295 138 0;
#X obj 199 166 &&;
#X obj 199 188 sel 1 0;
#X obj 106 35 inlet;
#X obj 106 344 outlet;
#X msg 218 242 color #aaaaaa #000000 #000000 \, label Load\ preset;
#X msg 227 270 color #ff5050 #000000 #000000 \, label Save\ preset;
#X connect 0 0 2 1;
#X connect 0 0 13 0;
#X connect 1 0 2 1;
#X connect 1 0 12 0;
#X connect 2 0 11 0;
#X connect 4 0 8 0;
#X connect 4 1 5 0;
#X connect 5 0 6 0;
#X connect 5 1 7 0;
#X connect 6 0 8 1;
#X connect 7 0 8 1;
#X connect 8 0 9 0;
#X connect 9 0 0 0;
#X connect 9 1 1 0;
#X connect 10 0 2 0;
#X connect 12 0 3 0;
#X connect 13 0 3 0;
#X restore 319 26 pd shift;
#X obj 62 204 f \$0;
#X obj 110 204 r \$0-A;
#X obj 186 204 r \$0-B;
#X obj 256 204 r \$0-C;
#X obj 330 204 r \$0-D;
#X obj 110 247 nbx 4 18 -1e+37 1e+37 0 0 empty empty empty 0 -8 0 10 #e4e4e4 #373737 #373737 0 256;
#X obj 186 247 nbx 4 18 -1e+37 1e+37 0 0 empty empty empty 0 -8 0 10 #e4e4e4 #373737 #373737 0 256;
#X obj 256 247 nbx 4 18 -1e+37 1e+37 0 0 empty empty empty 0 -8 0 10 #e4e4e4 #373737 #373737 0 256;
#X obj 330 247 nbx 4 18 -1e+37 1e+37 0 0 empty empty empty 0 -8 0 10 #e4e4e4 #373737 #373737 0 256;
#X obj 409 247 nbx 4 18 -1e+37 1e+37 0 0 empty empty empty 0 -8 0 10 #e4e4e4 #373737 #373737 0 256;
#X obj -1 89 t f b;
#X obj 569 299 pick;
#X obj 582 211 + 1;
#X obj 409 204 r \$0-E;
#X obj 569 238 del 10 1 msec;
#X text 402 182 preset variables;
#X text 85 -41 adapted from advanced examples from ELSE presets;
#X text 569 188 preset effect names;
#X obj 365 122 presets \\\$0-A \\\$0-B \\\$0-C \\\$0-D \\\$0-E;
#A saved \\\$0-A 1 || \\\$0-B 1500 || \\\$0-C 1 || \\\$0-D 1 || \\\$0-E 0 || \; \\\$0-A 5 || \\\$0-B 10000 || \\\$0-C 2 || \\\$0-D 0.15 || \\\$0-E 1 || \; \\\$0-A 2 || \\\$0-B 500 || \\\$0-C 10 || \\\$0-D 0.15 || \\\$0-E 1 || \; \\\$0-A 1 || \\\$0-B 10000 || \\\$0-C 5 || \\\$0-D 0.2 || \\\$0-E 1 || \;;
#X obj 1 -29 inlet;
#X msg 422 65 read eff-overdrive-preset.txt;
#X msg 62 338 set \$1 \$2 \$3 \$4 \$5 \$6 \$7;
#X text 624 68 read last saved file;
#X listbox 569 328 9 0 0 0 - - - 0;
#X listbox 62 396 21 0 0 0 - - - 0;
#X listbox 62 421 21 0 0 0 - - - 0;
#X obj 11 368 del 100 1 msec;
#X msg 435 92 write;
#X text 493 95 write to text file;
#X text -105 419 push when preset selected;
#X text -81 395 store running values;
#X obj -89 10 hradio 20 1 0 4 empty \$0-presetlabelr bypass 90 -5 0 10 #e4e4e4 #4d4d4d #373737 0;
#X obj 164 225 r \$0-od1;
#X obj 239 225 r \$0-lowpass;
#X obj 330 225 r \$0-od2;
#X obj 400 225 r \$0-level;
#X obj 85 225 r \$0-switch;
#X obj 62 311 pack2 f s f f f f f;
#X msg 61 539 \; \$1-presetlabelr label \$2 \; \$1-switchr \$3 \; \$1-od1r \$4 \; \$1-lowpassr \$5 \; \$1-od2r \$6 \; \$1-levelr \$7 \;;
#X msg 569 269 bypass crisp warm mild;
#X obj 422 26 loadbang;
#X connect 0 0 22 0;
#X connect 0 1 1 0;
#X connect 1 0 22 0;
#X connect 2 0 3 0;
#X connect 2 0 14 0;
#X connect 3 0 22 0;
#X connect 4 0 41 0;
#X connect 5 0 9 0;
#X connect 6 0 10 0;
#X connect 7 0 11 0;
#X connect 8 0 12 0;
#X connect 9 0 41 2;
#X connect 10 0 41 3;
#X connect 11 0 41 4;
#X connect 12 0 41 5;
#X connect 13 0 41 6;
#X connect 14 0 16 0;
#X connect 14 1 13 0;
#X connect 14 1 9 0;
#X connect 14 1 10 0;
#X connect 14 1 11 0;
#X connect 14 1 12 0;
#X connect 14 1 4 0;
#X connect 14 1 18 0;
#X connect 14 1 30 0;
#X connect 15 0 27 0;
#X connect 16 0 15 1;
#X connect 17 0 13 0;
#X connect 18 0 43 0;
#X connect 22 0 0 0;
#X connect 23 0 2 0;
#X connect 24 0 22 0;
#X connect 25 0 28 0;
#X connect 27 0 41 1;
#X connect 28 0 29 0;
#X connect 29 0 42 0;
#X connect 30 0 28 0;
#X connect 31 0 22 0;
#X connect 36 0 10 0;
#X connect 37 0 11 0;
#X connect 38 0 12 0;
#X connect 39 0 13 0;
#X connect 40 0 9 0;
#X connect 41 0 25 0;
#X connect 43 0 15 0;
#X connect 44 0 24 0;
#X coords 0 0 1 1 91 31 2 0 0;
#X restore 111 166 pd presets;
#X connect 0 0 19 1;
#X connect 2 0 4 0;
#X connect 3 0 8 0;
#X connect 4 0 3 0;
#X connect 5 0 19 0;
#X connect 6 0 29 0;
#X connect 7 0 31 0;
#X connect 8 0 1 0;
#X connect 8 0 9 0;
#X connect 12 0 28 0;
#X connect 16 0 25 0;
#X connect 16 0 17 0;
#X connect 17 0 12 0;
#X connect 18 0 30 0;
#X connect 19 0 8 0;
#X connect 19 1 2 0;
#X connect 20 0 5 0;
#X connect 21 0 7 0;
#X connect 22 0 12 0;
#X connect 23 0 6 0;
#X connect 24 0 18 0;
#X connect 25 0 18 0;
#X connect 25 0 6 0;
#X connect 25 0 7 0;
#X connect 27 0 32 0;
#X connect 28 0 22 0;
#X connect 28 0 4 1;
#X connect 29 0 23 0;
#X connect 29 0 2 1;
#X connect 30 0 24 0;
#X connect 30 0 3 1;
#X connect 31 0 21 0;
#X connect 31 0 8 1;
#X coords 0 0 1 1 200 200 1 0 0;
