#N canvas 23 26 1840 1026 12;
#X declare -path else;
#N canvas 0 0 450 300 (subpatch) 0;
#X array \$0-feedback 256 float 0;
#X coords 0 1 255 0 120 55 1;
#X restore 3 124 graph;
#X obj 101 315 cnv 15 388 330 empty empty empty 20 12 0 14 #dbdbdb #373737 0;
#X msg 265 80 set \$1;
#X msg 265 119 set \$1;
#X msg 330 74 set \$1;
#X msg 74 46 set \$1;
#X msg 241 0 set \$1;
#X msg 130 156 set \$1;
#X msg 140 74 set \$1;
#X obj 2 0 note 163 20 Arial empty 1 0 0 0 0 228 228 228 1 0 Spectral Delay;
#X obj 9 180 hsl 82 12 0 1 0 0 empty empty Dry/Wet 0 6 0 10 #dbe4de #000000 #000000 0 1;
#X obj -137 420 *~ 10;
#X obj -163 -1 inlet~;
#N canvas 0 0 612 483 equal_power_crossfade 0;
#X obj 33 48 inlet~;
#X obj 244 58 inlet;
#X obj 33 332 outlet~;
#X obj 319 54 loadbang;
#X msg 319 74 0.5;
#X obj 49 194 expr cos($f1 * 3.14159 / 2);
#X obj 244 194 expr sin($f1 * 3.14159 / 2);
#X obj 244 134 clip 0 1;
#N canvas 0 0 450 300 pan_core 0;
#X obj 21 106 inlet~;
#X obj 226 126 inlet;
#X obj 80 453 *~;
#X obj 144 497 outlet~;
#X obj 210 452 *~;
#X obj 226 428 line~;
#X obj 96 428 line~;
#X obj 96 127 inlet;
#X obj 179 104 inlet~;
#X text 244 544 comment;
#X obj 96 389 pack f 5;
#X obj 226 389 pack f 5;
#X text 223 540 Hans-Christoph Steiner \, 2004;
#X text 223 526 Adapted from [pan_core~];
#X obj 360 497 outlet~ #wet;
#X obj 254 497 outlet~ #dry;
#X connect 0 0 2 0;
#X connect 1 0 11 0;
#X connect 2 0 3 0;
#X connect 2 0 15 0;
#X connect 4 0 3 0;
#X connect 4 0 14 0;
#X connect 5 0 4 1;
#X connect 6 0 2 1;
#X connect 7 0 10 0;
#X connect 8 0 4 0;
#X connect 10 0 6 0;
#X connect 11 0 5 0;
#X restore 39 266 pd pan_core;
#X text 256 437 Adapted from [equal_power_pan~] \, Hans-Christoph Steiner \, 2004;
#X text 411 449 comment;
#X obj 128 46 inlet~;
#X obj 145 332 outlet~ #dry;
#X obj 256 332 outlet~ #wet;
#X connect 0 0 8 0;
#X connect 1 0 7 0;
#X connect 3 0 4 0;
#X connect 4 0 7 0;
#X connect 5 0 8 1;
#X connect 6 0 8 3;
#X connect 7 0 5 0;
#X connect 7 0 6 0;
#X connect 8 0 2 0;
#X connect 8 1 12 0;
#X connect 8 2 13 0;
#X connect 11 0 8 2;
#X restore -163 465 pd equal_power_crossfade;
#X obj 360 1 tgl 36 0 \$0-switch \$0-switchr On/Off -5 5 0 15 #e4e4e4 #4d4d4d #373737 0 1;
#X obj -206 156 + 1;
#X obj -206 220 gate~ 2 1;
#X text -308 -56 from https://guitarextended.wordpress.com/2012/02/07/spectral-delay-effect-for-guitar-with-pure-data/;
#X obj 233 -155 inlet;
#N canvas 112 32 450 300 presets 1;
#X obj 317 55 savestate;
#X msg 363 90 export;
#X obj 16 10 hradio 20 1 0 4 empty \$0-radio Load\ preset 0 4 0 10 #aaaaaa #000000 #000000 0;
#N canvas 356 221 694 431 shift 0;
#X msg 137 214 save;
#X msg 218 214 load;
#X obj 106 264 else/insert;
#X obj 218 293 s \$0-radio;
#X obj 175 95 keyname;
#X obj 214 117 select Shift_L;
#X msg 214 139 1;
#X msg 295 138 0;
#X obj 199 166 &&;
#X obj 199 188 sel 1 0;
#X obj 106 35 inlet;
#X obj 106 344 outlet;
#X msg 218 242 color #aaaaaa #000000 #000000 \, label Load\ preset;
#X msg 227 270 color #ff5050 #000000 #000000 \, label Save\ preset;
#X connect 0 0 2 1;
#X connect 0 0 13 0;
#X connect 1 0 2 1;
#X connect 1 0 12 0;
#X connect 2 0 11 0;
#X connect 4 0 8 0;
#X connect 4 1 5 0;
#X connect 5 0 6 0;
#X connect 5 1 7 0;
#X connect 6 0 8 1;
#X connect 7 0 8 1;
#X connect 8 0 9 0;
#X connect 9 0 0 0;
#X connect 9 1 1 0;
#X connect 10 0 2 0;
#X connect 12 0 3 0;
#X connect 13 0 3 0;
#X restore 317 24 pd shift;
#X obj 34 216 f \$0;
#X obj 77 304 pick;
#X obj 90 216 + 1;
#X obj 77 243 del 10 1 msec;
#X text 636 193 preset variables;
#X text 155 -36 adapted from advanced examples from ELSE presets;
#X text 77 193 preset effect names;
#X obj 1 -29 inlet;
#X text 622 66 read last saved file;
#X msg 433 90 write;
#X text 491 93 write to text file;
#X obj 52 -72 loadbang;
#X obj 420 40 loadbang;
#X obj 433 177 t b;
#X obj -1 89 t b f;
#X obj 524 223 r \$0-4;
#X obj 647 223 r \$0-5;
#X obj 791 223 r \$0-6;
#X obj 916 223 r \$0-7;
#X obj 1036 223 r \$0-8;
#X obj 1140 223 r \$0-9;
#X obj 479 300 r \$0-10;
#X obj 600 300 r \$0-11;
#X obj 737 300 r \$0-12;
#X obj 860 299 r \$0-13;
#X obj 600 343 nbx 4 18 -1e+37 1e+37 0 0 empty empty empty 0 -8 0 10 #e4e4e4 #373737 #373737 0 256;
#X obj 737 343 nbx 4 18 -1e+37 1e+37 0 0 empty empty empty 0 -8 0 10 #e4e4e4 #373737 #373737 0 256;
#X obj 860 343 nbx 4 18 -1e+37 1e+37 0 0 empty empty empty 0 -8 0 10 #e4e4e4 #373737 #373737 0 256;
#X obj 524 266 nbx 4 18 -1e+37 1e+37 0 0 empty empty empty 0 -8 0 10 #e4e4e4 #373737 #373737 0 256;
#X obj 791 266 nbx 4 18 -1e+37 1e+37 0 0 empty empty empty 0 -8 0 10 #e4e4e4 #373737 #373737 0 256;
#X obj 916 266 nbx 4 18 -1e+37 1e+37 0 0 empty empty empty 0 -8 0 10 #e4e4e4 #373737 #373737 0 256;
#X obj 1036 266 nbx 4 18 -1e+37 1e+37 0 0 empty empty empty 0 -8 0 10 #e4e4e4 #373737 #373737 0 256;
#X obj 1140 266 nbx 4 18 -1e+37 1e+37 0 0 empty empty empty 0 -8 0 10 #e4e4e4 #373737 #373737 0 256;
#X obj 479 343 nbx 4 18 -1e+37 1e+37 0 0 empty empty empty 0 -8 0 10 #e4e4e4 #373737 #373737 0 256;
#X obj 647 266 nbx 4 18 -1e+37 1e+37 0 0 empty empty empty 0 -8 0 10 #e4e4e4 #373737 #373737 0 256;
#X obj 433 266 nbx 4 18 -1e+37 1e+37 0 0 empty empty empty 0 -8 0 10 #e4e4e4 #373737 #373737 0 256;
#X obj 433 223 r \$0-3;
#X obj 433 243 r \$0-switch;
#X msg 420 63 read eff-spectraldelay-preset.txt;
#X msg 77 275 bypass space shimmer bells;
#X obj 524 243 r \$0-delay-depth;
#X obj 647 243 r \$0-del-sin;
#X obj 791 243 r \$0-del-flat;
#X obj 916 243 r \$0-fb-sin;
#X obj 1140 243 r \$0-gain-depth;
#X obj 479 320 r \$0-gain-sin;
#X obj 736 321 r \$0-lpfslope;
#X obj 958 345 nbx 4 18 -1e+37 1e+37 0 0 empty empty empty 0 -8 0 10 #e4e4e4 #373737 #373737 0 256;
#X obj 958 301 r \$0-14;
#X obj 1048 344 nbx 4 18 -1e+37 1e+37 0 0 empty empty empty 0 -8 0 10 #e4e4e4 #373737 #373737 0 256;
#X obj 1048 322 r \$0-wet;
#X obj 1048 300 r \$0-15;
#X obj 958 323 r \$0-clear;
#X obj 600 321 r \$0-gain-flat;
#X obj 1036 243 r \$0-fb-flat;
#X obj 860 320 r \$0-lpff;
#X obj 279 614 pipe2 100;
#X text 389 613 to prevent 'sin' waveform parameters from being overwritten by 'flat' \;;
#X text 424 653 do not know why 'flat' parameters are here \, eff-moddelay does this better;
#X msg 279 649 \; \$1-del-sinr \$5 \; \$1-fb-sinr \$7 \; \$1-gain-sinr \$10 \; \$1-clearr \$14 \;;
#X msg 52 -48 size 20;
#X listbox 62 483 21 0 0 0 - - - 0;
#X obj -52 475 del 100 1 msec;
#X text -223 491 push when preset selected;
#X text -193 466 store running values;
#X obj 62 520 store;
#A saved;
#X obj -52 520 del 100 1 msec;
#X msg 1 499 clear;
#X obj -52 453 del 100 1 msec;
#X obj 1 11 hradio 11 1 0 1 empty \$0-presetlabelr bells -5 -5 0 10 #e4e4e4 #4d4d4d #373737 0;
#X obj 279 568 s \$0-bng-samplerate;
#X text 424 567 to update sample rate of audio device;
#X obj 61 392 pack2 f s f f f f f f f f f f f f f f f;
#X msg 61 419 set \$1 \$2 \$3 \$4 \$5 \$6 \$7 \$8 \$9 \$10 \$11 \$12 \$13 \$14 \$15 \$16 \$17;
#X obj 363 120 presets \\\$0-3 \\\$0-4 \\\$0-5 \\\$0-6 \\\$0-7 \\\$0-8 \\\$0-9 \\\$0-10 \\\$0-11 \\\$0-12 \\\$0-13 \\\$0-14 \\\$0-15 \\\$0-16 \\\$0-17;
#A saved \\\$0-3 0 || \\\$0-4 1 || \\\$0-5 0 || \\\$0-6 0 || \\\$0-7 0 || \\\$0-8 0 || \\\$0-9 1 || \\\$0-10 0 || \\\$0-11 1 || \\\$0-12 -0.005 || \\\$0-13 256 || \\\$0-14 1 || \\\$0-15 0 || \\\$0-16 0 || \\\$0-17 0 || \; \\\$0-3 1 || \\\$0-4 0.7 || \\\$0-5 20 || \\\$0-6 0 || \\\$0-7 10 || \\\$0-8 0 || \\\$0-9 1 || \\\$0-10 10 || \\\$0-11 1 || \\\$0-12 -0.1 || \\\$0-13 256 || \\\$0-14 1 || \\\$0-15 0.2 || \\\$0-16 0 || \\\$0-17 0 || \; \\\$0-3 1 || \\\$0-4 0.8 || \\\$0-5 3 || \\\$0-6 0 || \\\$0-7 5 || \\\$0-8 0 || \\\$0-9 1 || \\\$0-10 5 || \\\$0-11 1 || \\\$0-12 -0.1 || \\\$0-13 256 || \\\$0-14 1 || \\\$0-15 0.2 || \\\$0-16 0 || \\\$0-17 0 || \; \\\$0-3 1 || \\\$0-4 1 || \\\$0-5 2 || \\\$0-6 0 || \\\$0-7 3 || \\\$0-8 0 || \\\$0-9 1 || \\\$0-10 9 || \\\$0-11 1 || \\\$0-12 -0.1 || \\\$0-13 256 || \\\$0-14 1 || \\\$0-15 0.2 || \\\$0-16 0 || \\\$0-17 0 || \; -empty- \; -empty- \; -empty- \; -empty- \; -empty- \; -empty- \; -empty- \; -empty- \; -empty- \; -empty- \; -empty- \; -empty- \; -empty- \; -empty- \; -empty- \; -empty- \; -empty- \; -empty- \; -empty- \; -empty- \; -empty- \; -empty- \; -empty- \; -empty- \; -empty- \; -empty- \; -empty- \; -empty- \; -empty- \; -empty- \; -empty- \; -empty- \; -empty- \; -empty- \; -empty- \; -empty- \; -empty- \; -empty- \; -empty- \; -empty- \; -empty- \; -empty- \; -empty- \; -empty- \; -empty- \; -empty- \; -empty- \; -empty- \; -empty- \; -empty- \; -empty- \; -empty- \; -empty- \; -empty- \; -empty- \; -empty- \; -empty- \; -empty- \; -empty- \; -empty- \;;
#X obj 1141 343 nbx 4 18 -1e+37 1e+37 0 0 empty empty empty 0 -8 0 10 #e4e4e4 #373737 #373737 0 256;
#X obj 1287 343 nbx 4 18 -1e+37 1e+37 0 0 empty empty empty 0 -8 0 10 #e4e4e4 #373737 #373737 0 256;
#X obj 1141 299 r \$0-16;
#X obj 1287 299 r \$0-17;
#X obj 1141 321 r \$0-mod-depth;
#X obj 1287 321 r \$0-mod-rate;
#X msg 62 614 \; \$1-presetlabelr label \$2 \; \$1-switchr \$3 \; \$1-delay-depthr \$4 \; \$1-del-sinr \$5 \; \$1-del-flatr \$6 \; \$1-fb-sinr \$7 \; \$1-fb-flatr \$8 \; \$1-gain-depthr \$9 \; \$1-gain-sinr \$10 \; \$1-gain-flatr \$11 \; \$1-lpfsloper \$12 \; \$1-lpffr \$13 \; \$1-clearr \$14 \; \$1-wetr \$15 \; \$1-mod-depthr \$16 \; \$1-mod-rater \$17 \;;
#X connect 0 0 78 0;
#X connect 0 1 1 0;
#X connect 1 0 78 0;
#X connect 2 0 3 0;
#X connect 2 0 18 0;
#X connect 3 0 78 0;
#X connect 4 0 76 0;
#X connect 5 0 76 1;
#X connect 6 0 5 1;
#X connect 7 0 43 0;
#X connect 11 0 2 0;
#X connect 13 0 78 0;
#X connect 15 0 64 0;
#X connect 16 0 42 0;
#X connect 17 0 33 0;
#X connect 17 0 35 0;
#X connect 17 0 38 0;
#X connect 17 0 32 0;
#X connect 17 0 37 0;
#X connect 17 0 29 0;
#X connect 17 0 30 0;
#X connect 17 0 31 0;
#X connect 17 0 34 0;
#X connect 17 0 36 0;
#X connect 17 0 39 0;
#X connect 17 0 79 0;
#X connect 17 0 80 0;
#X connect 18 0 4 0;
#X connect 18 0 7 0;
#X connect 18 0 17 0;
#X connect 18 0 72 0;
#X connect 18 1 6 0;
#X connect 19 0 32 0;
#X connect 20 0 38 0;
#X connect 21 0 33 0;
#X connect 22 0 34 0;
#X connect 23 0 35 0;
#X connect 24 0 36 0;
#X connect 25 0 37 0;
#X connect 26 0 29 0;
#X connect 27 0 30 0;
#X connect 28 0 31 0;
#X connect 29 0 76 10;
#X connect 30 0 76 11;
#X connect 31 0 76 12;
#X connect 32 0 76 3;
#X connect 33 0 76 5;
#X connect 34 0 76 6;
#X connect 35 0 76 7;
#X connect 36 0 76 8;
#X connect 37 0 76 9;
#X connect 38 0 76 4;
#X connect 39 0 76 2;
#X connect 40 0 39 0;
#X connect 41 0 39 0;
#X connect 42 0 78 0;
#X connect 43 0 5 0;
#X connect 44 0 32 0;
#X connect 45 0 38 0;
#X connect 46 0 33 0;
#X connect 47 0 34 0;
#X connect 48 0 36 0;
#X connect 49 0 37 0;
#X connect 50 0 30 0;
#X connect 51 0 76 13;
#X connect 52 0 51 0;
#X connect 53 0 76 14;
#X connect 54 0 53 0;
#X connect 55 0 53 0;
#X connect 56 0 51 0;
#X connect 57 0 29 0;
#X connect 58 0 35 0;
#X connect 59 0 31 0;
#X connect 60 0 63 0;
#X connect 64 0 2 0;
#X connect 65 0 69 1;
#X connect 66 0 65 0;
#X connect 66 0 70 0;
#X connect 69 0 85 0;
#X connect 69 0 60 0;
#X connect 69 0 74 0;
#X connect 70 0 69 0;
#X connect 71 0 69 0;
#X connect 72 0 71 0;
#X connect 72 0 66 0;
#X connect 76 0 77 0;
#X connect 77 0 65 0;
#X connect 78 0 0 0;
#X connect 79 0 76 15;
#X connect 80 0 76 16;
#X connect 81 0 79 0;
#X connect 82 0 80 0;
#X connect 83 0 79 0;
#X connect 84 0 80 0;
#X coords 0 0 1 1 99 33 2 0 0;
#X restore 255 160 pd presets;
#X obj -206 530 outlet~ sum;
#N canvas 227 77 775 691 fft-analysis 0;
#X obj -314 573 cnv 15 276 201 empty empty empty 20 12 0 14 #b7b7b7 #373737 0;
#X obj 20 126 *~;
#X obj 19 61 inlet~;
#X obj 20 150 rfft~;
#X obj 41 102 tabreceive~ \$0-hann;
#X obj 18 603 *~;
#X obj 63 584 tabreceive~ \$0-hann;
#X obj 18 530 rifft~;
#X obj 18 743 outlet~;
#X obj 40 389 wrap~;
#X obj 19 413 -~;
#X obj 19 464 /~ 44.1;
#X obj 18 559 /~ 64;
#X obj 20 311 tabreceive~ \$0-delay;
#X obj 151 380 tabreceive~ \$0-feedback;
#X obj 155 420 *~;
#X obj 119 421 *~;
#X obj 16 7 block~ 512 4;
#X obj 20 438 *~ 512;
#X text 243 497 read out the delay and feedbackarrays for;
#X text 243 523 every audio block (= fft frame) and use the;
#X text 244 545 integer value of each delay bin as multiplier;
#X text 249 566 of the blocksize to calculate the pointer;
#X text 247 587 back into the vd~s before resynthesis.;
#X obj 198 439 samplerate~;
#X obj 198 417 loadbang;
#X msg 280 423 bang;
#X obj 198 461 / 1000;
#X obj 20 235 delwrite~ \$0-re 12000;
#X obj 60 212 delwrite~ \$0-im 12000;
#X obj 19 495 vd~ \$0-re;
#X obj 116 495 vd~ \$0-im;
#X text 275 211 write real and imaginary part into delay-buffer;
#X obj 231 23 tabreceive~ \$0-gain;
#X text 370 77 Just to show we're doing something \, we multiply each channel by a gain controlled by an array in the main window. The control is quartic-scaled for easy editing.;
#X obj 19 185 *~;
#X obj 61 185 *~;
#X obj 316 174 print~;
#X msg 316 148 bang;
#X floatatom 404 164 5 0 0 0 - - - 0;
#X obj 20 362 *~ 0.1;
#X obj 168 311 r \$0-delay-depth;
#X obj 168 337 * 0.1;
#X text 225 336 <-- set right scale for audio range effects;
#X obj 231 102 *~ 0.0125;
#X obj 288 48 r \$0-gain-depth;
#X obj 288 78 * 0.015;
#X msg -106 29 clear;
#X obj -106 7 r \$0-clear;
#X obj 280 405 r \$0-bng-samplerate;
#N canvas 0 50 450 300 timemod 0;
#X obj 400 129 inlet;
#X obj 400 655 outlet;
#X obj 400 594 +;
#X obj 503 523 t b f;
#X floatatom 400 623 8 0 0 0 - - - 12;
#X obj 503 279 hv.lfo sine;
#X msg 585 221 0.5;
#X floatatom 503 389 11 0 0 0 empty - - 12;
#X msg 585 247 \$0;
#X obj 503 455 - 0.5;
#X floatatom 400 402 7 0 0 0 delay\ time - - 12;
#X obj 503 352 * 1;
#X obj 585 166 route 0;
#X text 504 587 sums delay time with modulated time;
#X obj 503 417 change;
#X msg 756 253 0;
#X obj 585 193 t b b;
#X obj 756 221 del 2000 1 msec;
#X text 636 220 reset phase and time;
#X obj 771 109 note 475 14 Inter empty 0 55 55 55 0 228 228 228 0 0 this module was made to oscillate the delay time up and down +-5msec with an adjustable frequency for the rate of oscillation. By changing the rate of change of the delay time and the depth of the delay we get a time modulating effect on the delay which sounds slightly analog.;
#X text 548 454 fluctuate value above and below time (bipolar) \, change to zero for positive unipolar or apply a negative multiplier for negative unipolar.;
#X text 778 47 inspired by this discussion \; https://hyp.is/x41tdqRuEe6Xp1-0nsoBkQ/www.reddit.com/r/guitarpedals/comments/75blug/modulated_delaya_loaded_term_but_heres_whats/;
#X obj 503 129 r \$0-mod-rate;
#X obj 535 314 r \$0-mod-depth;
#X connect 0 0 10 0;
#X connect 2 0 4 0;
#X connect 3 0 2 0;
#X connect 3 1 2 1;
#X connect 4 0 1 0;
#X connect 5 0 11 0;
#X connect 6 0 8 0;
#X connect 7 0 14 0;
#X connect 8 0 5 1;
#X connect 9 0 3 0;
#X connect 10 0 2 0;
#X connect 11 0 7 0;
#X connect 12 0 16 0;
#X connect 14 0 9 0;
#X connect 15 0 3 0;
#X connect 16 0 6 0;
#X connect 16 1 17 0;
#X connect 17 0 15 0;
#X connect 22 0 5 0;
#X connect 22 0 12 0;
#X connect 23 0 11 1;
#X restore -229 695 pd timemod;
#X msg -229 667 \$1;
#X obj -229 640 r \$0-moddelaytime;
#X obj -229 611 delwrite~ spectraleffect 10000;
#X obj -229 726 delread4~ spectraleffect;
#X text -229 582 modulating subpatch insert;
#X connect 1 0 3 0;
#X connect 2 0 1 0;
#X connect 3 0 35 0;
#X connect 3 1 36 0;
#X connect 4 0 1 1;
#X connect 5 0 53 0;
#X connect 6 0 5 1;
#X connect 7 0 12 0;
#X connect 9 0 10 1;
#X connect 10 0 18 0;
#X connect 11 0 30 0;
#X connect 11 0 31 0;
#X connect 12 0 5 0;
#X connect 13 0 40 0;
#X connect 14 0 16 1;
#X connect 14 0 15 1;
#X connect 15 0 29 0;
#X connect 16 0 28 0;
#X connect 18 0 11 0;
#X connect 24 0 27 0;
#X connect 25 0 24 0;
#X connect 26 0 24 0;
#X connect 27 0 11 1;
#X connect 30 0 7 0;
#X connect 30 0 16 0;
#X connect 31 0 7 1;
#X connect 31 0 15 0;
#X connect 33 0 44 0;
#X connect 35 0 28 0;
#X connect 36 0 29 0;
#X connect 38 0 37 0;
#X connect 40 0 9 0;
#X connect 40 0 10 0;
#X connect 41 0 42 0;
#X connect 42 0 40 1;
#X connect 44 0 36 1;
#X connect 44 0 35 1;
#X connect 45 0 46 0;
#X connect 46 0 44 1;
#X connect 47 0 29 0;
#X connect 47 0 28 0;
#X connect 48 0 47 0;
#X connect 49 0 26 0;
#X connect 50 0 54 0;
#X connect 51 0 50 0;
#X connect 52 0 51 0;
#X connect 54 0 8 0;
#X restore -137 291 pd fft-analysis;
#N canvas 35 66 600 441 Hann-window 0;
#N canvas 0 0 450 300 (subpatch) 0;
#X array \$0-hann 512 float 0;
#X coords 0 1 511 0 200 120 1;
#X restore 293 249 graph;
#X msg 171 263 0;
#X obj 65 312 osc~;
#X obj 65 264 samplerate~;
#X obj 65 335 *~ -0.5;
#X obj 65 358 +~ 0.5;
#X obj 57 383 tabwrite~ \$0-hann;
#X text 279 241 1;
#X text 272 359 0;
#X text 288 372 0;
#X obj 65 288 / 512;
#X obj 57 241 bng 15 250 50 0 empty empty empty 0 -6 0 8 #fcfcfc #000000 #000000;
#X text 336 221 Hann window;
#X text 113 310 period 512;
#X text 90 215 recalculate Hann;
#X text 125 230 window table;
#X obj 57 146 loadbang;
#X msg 79 179 \; pd dsp 1;
#X text 40 27 The Hann window is now recomputed on 'loadbang' to make the file smaller (it doesn't have to be saved with the array.);
#X text 474 375 511;
#X connect 1 0 2 1;
#X connect 2 0 4 0;
#X connect 3 0 10 0;
#X connect 4 0 5 0;
#X connect 5 0 6 0;
#X connect 10 0 2 0;
#X connect 11 0 3 0;
#X connect 11 0 1 0;
#X connect 11 0 6 0;
#X connect 16 0 11 0;
#X connect 16 0 17 0;
#X restore -121 329 pd Hann-window;
#N canvas 0 0 454 304 (subpatch) 0;
#X array \$0-delay 256 float 0;
#X coords 0 1024 255 0 120 55 1;
#X restore 3 46 graph;
#X text 3 44 2;
#X text 3 160 0;
#X text 3 122 1;
#X text -306 -178 in each individual bin.;
#X text -304 -193 The two arrays below are for setting the delay and feedback;
#X text -136 -254 SPECTRAL DELAY;
#X text -306 -157 See the fft-analysis subpatch for details how it is done.;
#X text -308 -233 Example patch for spectral delay \, utilizing Miller;
#X text -307 -218 Puckette's patch on Fourier Resynthesis.;
#N canvas 0 0 450 300 (subpatch) 0;
#X array \$0-gain 256 float 0;
#X coords 0 1 255 -0.01 120 55 1;
#X restore 191 25 graph;
#X text 191 61 0;
#X text 192 23 1;
#X text 277 61 22K;
#N canvas 0 0 450 300 del-sin 0;
#X obj 44 309 tabwrite \$0-delay;
#N canvas 0 0 450 300 count256 0;
#X obj 101 155 f 0;
#X obj 133 155 + 1;
#X obj 101 79 t a b;
#X obj 103 111 until;
#X obj 162 112 0;
#X obj 103 27 inlet;
#X msg 101 51 256;
#X obj 102 192 outlet;
#X connect 0 0 1 0;
#X connect 0 0 7 0;
#X connect 1 0 0 1;
#X connect 2 0 3 0;
#X connect 2 1 4 0;
#X connect 3 0 0 0;
#X connect 4 0 0 1;
#X connect 5 0 6 0;
#X connect 6 0 2 0;
#X restore 42 131 pd count256;
#X obj 43 228 sin;
#X obj 43 159 t a a;
#X obj 43 204 / 10;
#X obj 45 252 + 1;
#X obj 46 281 * 512;
#X floatatom 120 167 5 0 0 0 - - - 0;
#X obj 47 95 t b a;
#X obj 47 70 inlet;
#X obj 226 309 s \$0-moddelaytime;
#X connect 1 0 3 0;
#X connect 2 0 5 0;
#X connect 3 0 4 0;
#X connect 3 1 0 1;
#X connect 4 0 2 0;
#X connect 5 0 6 0;
#X connect 6 0 0 0;
#X connect 6 0 10 0;
#X connect 7 0 4 1;
#X connect 8 0 1 0;
#X connect 8 1 4 1;
#X connect 9 0 8 0;
#X restore 123 364 pd del-sin;
#N canvas 492 335 519 433 fb-sin 0;
#N canvas 0 0 450 300 count256 0;
#X obj 101 155 f 0;
#X obj 133 155 + 1;
#X obj 101 79 t a b;
#X obj 103 111 until;
#X obj 162 112 0;
#X obj 103 27 inlet;
#X msg 101 51 256;
#X obj 102 192 outlet;
#X connect 0 0 1 0;
#X connect 0 0 7 0;
#X connect 1 0 0 1;
#X connect 2 0 3 0;
#X connect 2 1 4 0;
#X connect 3 0 0 0;
#X connect 4 0 0 1;
#X connect 5 0 6 0;
#X connect 6 0 2 0;
#X restore 234 129 pd count256;
#X obj 235 157 t a a;
#X obj 237 287 tabwrite \$0-feedback;
#X obj 236 206 cos;
#X obj 236 182 / 20;
#X obj 236 230 + 1;
#X floatatom 296 164 5 0 0 0 - - - 0;
#X obj 239 93 t b a;
#X obj 239 68 inlet;
#X obj 236 261 / 2.5;
#X text 124 263 don't go to 1:;
#X connect 0 0 1 0;
#X connect 1 0 4 0;
#X connect 1 1 2 1;
#X connect 3 0 5 0;
#X connect 4 0 3 0;
#X connect 5 0 9 0;
#X connect 6 0 4 1;
#X connect 7 0 0 0;
#X connect 7 1 4 1;
#X connect 8 0 7 0;
#X connect 9 0 2 0;
#X restore 123 521 pd fb-sin;
#X obj 125 48 vsl 12 55 0 1024 0 0 empty empty empty 0 -9 0 10 #fcfcfc #000000 #000000 0 1;
#X obj 125 126 vsl 12 55 0 1 0 0 empty empty empty 0 -9 0 10 #fcfcfc #000000 #000000 0 1;
#X obj 316 48 vsl 12 55 0 1 0 0 empty empty empty 0 -9 0 10 #fcfcfc #000000 #000000 0 1;
#N canvas 410 246 519 433 gain-sin 0;
#N canvas 0 0 450 300 count256 0;
#X obj 101 155 f 0;
#X obj 133 155 + 1;
#X obj 101 79 t a b;
#X obj 103 111 until;
#X obj 162 112 0;
#X obj 103 27 inlet;
#X msg 101 51 256;
#X obj 102 192 outlet;
#X connect 0 0 1 0;
#X connect 0 0 7 0;
#X connect 1 0 0 1;
#X connect 2 0 3 0;
#X connect 2 1 4 0;
#X connect 3 0 0 0;
#X connect 4 0 0 1;
#X connect 5 0 6 0;
#X connect 6 0 2 0;
#X restore 239 129 pd count256;
#X obj 239 164 t a a;
#X obj 238 244 cos;
#X obj 239 220 / 20;
#X obj 238 268 + 1;
#X obj 238 295 / 2;
#X floatatom 296 164 5 0 0 0 - - - 0;
#X obj 239 93 t b a;
#X obj 239 68 inlet;
#X obj 238 324 tabwrite \$0-gain;
#X connect 0 0 1 0;
#X connect 1 0 3 0;
#X connect 1 1 9 1;
#X connect 2 0 4 0;
#X connect 3 0 2 0;
#X connect 4 0 5 0;
#X connect 5 0 9 0;
#X connect 6 0 3 1;
#X connect 7 0 0 0;
#X connect 7 1 3 1;
#X connect 8 0 7 0;
#X restore 278 356 pd gain-sin;
#X text -308 -130 Based on patches by MSP \, Johannes Kreidler \, Orm Finnendahl;
#X text 3 82 0;
#X obj 71 30 hsl 64 12 0 1 0 1 empty empty delay-depth 4 6 1 8 #fcfcfc #fc2828 #000000 6300 1;
#X obj 247 13 hsl 64 12 0 1 0 1 empty empty gain-depth 4 6 1 8 #fcfcfc #fc2828 #000000 6300 1;
#N canvas 0 0 569 300 low-pass-gain 0;
#N canvas 0 0 450 300 count256 0;
#X obj 101 155 f 0;
#X obj 133 155 + 1;
#X obj 101 79 t a b;
#X obj 103 111 until;
#X obj 162 112 0;
#X obj 103 27 inlet;
#X msg 101 51 256;
#X obj 102 192 outlet;
#X connect 0 0 1 0;
#X connect 0 0 7 0;
#X connect 1 0 0 1;
#X connect 2 0 3 0;
#X connect 2 1 4 0;
#X connect 3 0 0 0;
#X connect 4 0 0 1;
#X connect 5 0 6 0;
#X connect 6 0 2 0;
#X restore 203 103 pd count256;
#X obj 203 130 t a a;
#X obj 275 68 t b a;
#X obj 203 335 tabwrite \$0-gain;
#X floatatom 388 118 5 0 0 0 - - - 0;
#X obj 275 39 inlet;
#X obj 374 39 inlet;
#X obj 203 254 expr if($f1<0 \, 0 \, $f1);
#X obj 203 212 expr if($f1<$f2 \, $f3 \, $f4*$f1+($f3-$f4*$f2));
#X obj 449 39 inlet;
#X obj 449 68 t b a;
#X obj 374 68 t b a;
#X connect 0 0 1 0;
#X connect 1 0 8 0;
#X connect 1 1 3 1;
#X connect 2 0 0 0;
#X connect 2 1 8 1;
#X connect 4 0 8 2;
#X connect 5 0 2 0;
#X connect 6 0 11 0;
#X connect 7 0 3 0;
#X connect 8 0 7 0;
#X connect 9 0 10 0;
#X connect 10 0 0 0;
#X connect 10 1 8 3;
#X connect 11 0 0 0;
#X connect 11 1 4 0;
#X restore 278 530 pd low-pass-gain;
#X obj 194 94 hsl 95 12 0 256 0 0 empty empty LPF-Pre 0 6 0 10 #fcfcfc #00fc04 #000000 0 1;
#X obj 194 107 hsl 95 12 -0.005 -0.1 0 0 empty empty Slope-Pre 0 6 0 10 #fcfcfc #9c00fc #000000 0 1;
#X text -308 -105 Adapted from Frank Barnecht.;
#X obj 315 0 bng 30 250 50 0 \$0-clear \$0-clearr Clear 0 7 0 10 #e4e4e4 #4d4d4d #373737;
#X obj -163 258 nop~;
#X obj 137 46 nbx 2 12 -1e+37 1e+37 0 0 \$0-del-sin \$0-del-sinr del-sin 0 -5 0 10 #e4e4e4 #373737 #373737 0 256;
#X obj 140 124 nbx 2 12 -1e+37 1e+37 0 0 \$0-fb-sin \$0-fb-sinr fb-sin 0 -5 0 10 #e4e4e4 #373737 #373737 0 256;
#X obj 329 46 nbx 2 12 -1e+37 1e+37 0 0 \$0-gain-sin \$0-gain-sinr gain-sin 0 -5 0 10 #e4e4e4 #373737 #373737 0 256;
#X obj 123 604 s \$0-feedback;
#X msg 123 585 const \$1;
#X obj 123 442 s \$0-delay;
#X msg 123 422 const \$1;
#X msg 278 406 const \$1;
#X obj 278 427 s \$0-gain;
#X obj 95 180 nbx 4 12 0 1 0 0 \$0-wet \$0-wetr empty 0 -8 0 10 #e4e4e4 #373737 #373737 0 256;
#X obj 288 94 nbx 2 12 0 256 0 0 \$0-lpff \$0-lpffr empty 0 -8 0 10 #e4e4e4 #373737 #373737 0 256;
#X obj 288 107 nbx 2 12 -0.005 -0.1 0 0 \$0-lpfslope \$0-lpfsloper empty 0 -8 0 10 #e4e4e4 #373737 #373737 0 256;
#X obj 330 88 nbx 2 12 0 1 0 0 \$0-gain-flat \$0-gain-flatr gain-flat 0 15 0 10 #e4e4e4 #373737 #373737 0 256;
#X msg 3 205 set \$1;
#X obj 278 385 r \$0-gain-flat;
#X obj 123 566 r \$0-fb-flat;
#X obj 123 402 r \$0-del-flat;
#X obj 140 166 nbx 2 12 0 1 0 0 \$0-fb-flat \$0-fb-flatr fb-flat 0 15 0 10 #e4e4e4 #373737 #373737 0 256;
#X obj 140 88 nbx 2 12 0 1024 0 0 \$0-del-flat \$0-del-flatr del-flat 0 15 0 10 #e4e4e4 #373737 #373737 0 256;
#X obj 283 25 nbx 2 12 0 1 0 0 \$0-gain-depth \$0-gain-depthr empty 0 -8 0 10 #e4e4e4 #373737 #373737 0 256;
#X obj 95 46 nbx 2 12 0 1 0 0 \$0-delay-depth \$0-delay-depthr empty 0 -8 0 10 #e4e4e4 #373737 #373737 0 256;
#X obj 278 457 r \$0-lpff;
#X obj 369 501 r \$0-lpfslope;
#X obj 323 482 r \$0-gain-flat;
#X obj 123 343 r \$0-del-sin;
#X obj 123 501 r \$0-fb-sin;
#X obj 278 336 r \$0-gain-sin;
#N canvas 65 134 1840 1026 meter2 1;
#X obj 25 10 vu 15 80 \$0-R empty -1 -8 0 10 #000000 #000000 1 0;
#X obj 7 10 vu 15 80 \$0-L empty -1 -8 0 10 #000000 #000000 0 0;
#X obj 117 -140 inlet~;
#X obj 206 -138 inlet~;
#X obj 141 33 pack;
#X obj 290 25 pack;
#X text 362 33 Alexandre Torres Porres (2016);
#X text 360 52 Part of ELSE \; https://github.com/porres/pd-else;
#X obj 207 171 outlet~;
#X obj 117 171 outlet~;
#X obj 269 171 outlet;
#X obj 269 131 list;
#X obj 378 -49 declare -path else;
#X obj 135 -90 snake~ out;
#N canvas 275 222 423 406 vu 0;
#X obj 84 57 inlet~;
#X obj 84 202 env~ 1024;
#X obj 176 171 abs~;
#X obj 176 236 snapshot~;
#X obj 176 269 rmstodb;
#X obj 176 201 slop~ 0 0 0 0 1e+09;
#X obj 84 236 t f b;
#X obj 84 277 - 100;
#X obj 176 294 - 100;
#X obj 242 174 expr 1000 / $f1;
#X obj 242 132 else/initmess 500;
#X obj 84 347 outlet;
#X obj 176 347 outlet;
#X connect 0 0 1 0;
#X connect 0 0 2 0;
#X connect 1 0 6 0;
#X connect 2 0 5 0;
#X connect 3 0 4 0;
#X connect 4 0 8 0;
#X connect 5 0 3 0;
#X connect 6 0 7 0;
#X connect 6 1 3 0;
#X connect 7 0 11 0;
#X connect 8 0 12 0;
#X connect 9 0 5 3;
#X connect 10 0 9 0;
#X restore 135 -48 pd vu;
#N canvas 275 222 423 406 vu 0;
#X obj 84 57 inlet~;
#X obj 84 202 env~ 1024;
#X obj 176 171 abs~;
#X obj 176 236 snapshot~;
#X obj 176 269 rmstodb;
#X obj 176 201 slop~ 0 0 0 0 1e+09;
#X obj 84 236 t f b;
#X obj 84 277 - 100;
#X obj 176 294 - 100;
#X obj 242 174 expr 1000 / $f1;
#X obj 242 132 else/initmess 500;
#X obj 84 347 outlet;
#X obj 176 347 outlet;
#X connect 0 0 1 0;
#X connect 0 0 2 0;
#X connect 1 0 6 0;
#X connect 2 0 5 0;
#X connect 3 0 4 0;
#X connect 4 0 8 0;
#X connect 5 0 3 0;
#X connect 6 0 7 0;
#X connect 6 1 3 0;
#X connect 7 0 11 0;
#X connect 8 0 12 0;
#X connect 9 0 5 3;
#X connect 10 0 9 0;
#X restore 290 -46 pd vu;
#X connect 2 0 9 0;
#X connect 2 0 13 0;
#X connect 3 0 8 0;
#X connect 3 0 15 0;
#X connect 4 0 11 0;
#X connect 5 0 11 1;
#X connect 11 0 10 0;
#X connect 13 0 14 0;
#X connect 13 1 15 0;
#X connect 14 0 4 0;
#X connect 14 0 1 0;
#X connect 14 1 4 1;
#X connect 14 1 1 1;
#X connect 15 0 5 0;
#X connect 15 0 0 0;
#X connect 15 1 5 1;
#X connect 15 1 0 1;
#X coords 0 0 1 1 39 84 2 0 0;
#X restore 349 109 pd meter2;
#X obj 452 80 r~ \$0-meterdryr;
#X obj 452 108 r~ \$0-meterwetr;
#X obj -91 530 s~ \$0-meterdryr;
#X obj -18 563 s~ \$0-meterwetr;
#X text 241 602 'sin' and linear parameters for fft-analysis;
#X obj 233 -126 route preset;
#X obj 123 470 s \$0-moddelaytime;
#X msg 215 191 set \$1;
#X obj 215 149 knob 34 0 5 0 0 empty empty #E4E4E4 #B7B7B7 #4D4D4D 1 0 0 0 1 270 0 0 0;
#X obj 215 182 nbx 3 12 0 5 0 0 \$0-mod-rate \$0-mod-rater Rate\ (Hz) 0 -5 0 10 #e4e4e4 #373737 #373737 0 256;
#X obj 177 149 knob 34 0 5 0 0 empty empty #E4E4E4 #B7B7B7 #4D4D4D 1 0 0 0 1 270 0 0 0;
#X obj 177 182 nbx 4 11 0 5 0 0 \$0-mod-depth \$0-mod-depthr Depth\ (+-\ ms) 0 -5 0 8 #e4e4e4 #373737 #373737 0 256;
#X msg 177 191 set \$1, f 7;
#X connect 2 0 48 0;
#X connect 3 0 49 0;
#X connect 4 0 41 0;
#X connect 5 0 45 0;
#X connect 6 0 46 0;
#X connect 7 0 40 0;
#X connect 8 0 39 0;
#X connect 10 0 62 0;
#X connect 11 0 13 1;
#X connect 12 0 16 1;
#X connect 13 0 20 0;
#X connect 13 1 83 0;
#X connect 13 2 84 0;
#X connect 14 0 15 0;
#X connect 15 0 16 0;
#X connect 16 0 20 0;
#X connect 16 1 52 0;
#X connect 18 0 86 0;
#X connect 21 0 11 0;
#X connect 39 0 71 0;
#X connect 40 0 70 0;
#X connect 41 0 65 0;
#X connect 45 0 73 0;
#X connect 46 0 72 0;
#X connect 48 0 63 0;
#X connect 49 0 64 0;
#X connect 52 0 21 0;
#X connect 52 0 13 0;
#X connect 57 0 56 0;
#X connect 59 0 58 0;
#X connect 59 0 87 0;
#X connect 60 0 61 0;
#X connect 62 0 13 2;
#X connect 62 0 66 0;
#X connect 63 0 2 0;
#X connect 64 0 3 0;
#X connect 65 0 4 0;
#X connect 66 0 10 0;
#X connect 67 0 60 0;
#X connect 68 0 57 0;
#X connect 69 0 59 0;
#X connect 70 0 7 0;
#X connect 71 0 8 0;
#X connect 72 0 6 0;
#X connect 73 0 5 0;
#X connect 74 0 47 0;
#X connect 75 0 47 2;
#X connect 76 0 47 1;
#X connect 77 0 37 0;
#X connect 78 0 38 0;
#X connect 79 0 42 0;
#X connect 81 0 80 0;
#X connect 82 0 80 1;
#X connect 86 0 19 0;
#X connect 88 0 89 0;
#X connect 89 0 90 0;
#X connect 90 0 88 0;
#X connect 91 0 92 0;
#X connect 92 0 93 0;
#X connect 93 0 91 0;
#X coords 0 0 1 1 396 196 1 0 -1;
