#N canvas 778 192 450 300 12;
#X obj -320 -68 inlet~;
#X obj -320 563 outlet~;
#X obj -204 284 overdrive~;
#X obj -204 387 overdrive~;
#X obj -204 340 onepole~ 15000 Hz;
#X obj -320 206 + 1;
#X obj 1 37 knob 50 1 10 0 1 empty empty #E4E4E4 #B7B7B7 #4D4D4D 1 0 10 1 1 270 0 0 1;
#X obj 53 121 knob 50 0 1.5 0 1 empty empty #E4E4E4 #B7B7B7 #4D4D4D 1 0 0 0 1 270 0 0 0;
#X obj -320 527 *~ 1;
#X text 1 21 O/D 1;
#X text 1 105 OD/2;
#X text 48 23 Lowpass;
#X obj 1 1 note 188 20 Arial empty 1 0 0 0 0 228 228 228 1 0 Overdrive;
#X text 53 105 Level;
#X obj 1 121 knob 50 1 10 0 1 empty empty #E4E4E4 #B7B7B7 #4D4D4D 1 0 10 1 1 270 0 0 1;
#X obj -320 241 gate~ 2 1;
#X obj 162 1 tgl 36 0 \$0-switch \$0-switchr On/Off -5 5 0 10 #e4e4e4 #4d4d4d #373737 0 1;
#X msg 102 121 set \$1;
#X msg 109 88 set \$1;
#X msg -63 88 set \$1;
#X msg -63 166 set \$1;
#X text 2 -45 from https://cycling74.com/tutorials/max-5-guitar-processor-part-2;
#X obj 53 88 nbx 5 18 100 15000 0 0 \$0-lowpass \$0-lowpassr empty 0 -8 0 10 #e4e4e4 #373737 #373737 0 256;
#X obj 1 88 nbx 4 18 1 10 0 0 \$0-od1 \$0-od1r empty 0 -8 0 10 #e4e4e4 #373737 #373737 0 256;
#X obj 2 170 nbx 4 18 1 10 0 0 \$0-od2 \$0-od2r empty 0 -8 0 10 #e4e4e4 #373737 #373737 0 256;
#X obj 53 170 nbx 4 18 0 1.5 0 0 \$0-level \$0-levelr empty 0 -8 0 10 #e4e4e4 #373737 #373737 0 256;
#N canvas 0 50 450 300 presets 0;
#X obj 1 14 hradio 11 1 0 1 empty \$0-presetlabelr bypass -5 -5 0 10 #e4e4e4 #4d4d4d #373737 0;
#X obj 319 57 savestate;
#X msg 365 92 export;
#X obj 10 12 hradio 18 1 0 4 empty \$0-radio Load\ preset 0 4 0 10 #aaaaaa #000000 #000000 0;
#N canvas 356 221 694 431 shift 0;
#X msg 137 214 save;
#X msg 218 214 load;
#X obj 106 264 else/insert;
#X obj 218 293 s \$0-radio;
#X obj 175 95 keyname;
#X obj 214 117 select Shift_L;
#X msg 214 139 1;
#X msg 295 138 0;
#X obj 199 166 &&;
#X obj 199 188 sel 1 0;
#X obj 106 35 inlet;
#X obj 106 344 outlet;
#X msg 218 242 color #aaaaaa #000000 #000000 \, label Load\ preset;
#X msg 227 270 color #ff5050 #000000 #000000 \, label Save\ preset;
#X connect 0 0 2 1;
#X connect 0 0 13 0;
#X connect 1 0 2 1;
#X connect 1 0 12 0;
#X connect 2 0 11 0;
#X connect 4 0 8 0;
#X connect 4 1 5 0;
#X connect 5 0 6 0;
#X connect 5 1 7 0;
#X connect 6 0 8 1;
#X connect 7 0 8 1;
#X connect 8 0 9 0;
#X connect 9 0 0 0;
#X connect 9 1 1 0;
#X connect 10 0 2 0;
#X connect 12 0 3 0;
#X connect 13 0 3 0;
#X restore 319 26 pd shift;
#X obj 62 204 f \$0;
#X obj 110 204 r \$0-A;
#X obj 186 204 r \$0-B;
#X obj 256 204 r \$0-C;
#X obj 330 204 r \$0-D;
#X obj 110 247 nbx 4 18 -1e+37 1e+37 0 0 empty empty empty 0 -8 0 10 #e4e4e4 #373737 #373737 0 256;
#X obj 186 247 nbx 4 18 -1e+37 1e+37 0 0 empty empty empty 0 -8 0 10 #e4e4e4 #373737 #373737 0 256;
#X obj 256 247 nbx 4 18 -1e+37 1e+37 0 0 empty empty empty 0 -8 0 10 #e4e4e4 #373737 #373737 0 256;
#X obj 330 247 nbx 4 18 -1e+37 1e+37 0 0 empty empty empty 0 -8 0 10 #e4e4e4 #373737 #373737 0 256;
#X obj 409 247 nbx 4 18 -1e+37 1e+37 0 0 empty empty empty 0 -8 0 10 #e4e4e4 #373737 #373737 0 256;
#X obj -1 89 t f b;
#X obj 569 299 pick;
#X obj 582 211 + 1;
#X obj 409 204 r \$0-E;
#X obj 569 238 del 10 1 msec;
#X text 402 182 preset variables;
#X text 85 -41 adapted from advanced examples from ELSE presets;
#X text 569 188 preset effect names;
#X obj 365 122 presets \\\$0-A \\\$0-B \\\$0-C \\\$0-D \\\$0-E;
#A saved \\\$0-A 0 || \\\$0-B 1 || \\\$0-C 1500 || \\\$0-D 1 || \\\$0-E 1 || \; \\\$0-A 1 || \\\$0-B 5 || \\\$0-C 10000 || \\\$0-D 2 || \\\$0-E 0.15 || \; \\\$0-A 1 || \\\$0-B 2 || \\\$0-C 500 || \\\$0-D 10 || \\\$0-E 0.15 || \; \\\$0-A 1 || \\\$0-B 1 || \\\$0-C 10000 || \\\$0-D 5 || \\\$0-E 0.2 || \;;
#X obj 1 -29 inlet;
#X msg 422 65 read eff-overdrive-preset.txt;
#X msg 62 338 set \$1 \$2 \$3 \$4 \$5 \$6 \$7;
#X text 624 68 read last saved file;
#X msg 435 92 write;
#X text 493 95 write to text file;
#X obj 164 225 r \$0-od1;
#X obj 239 225 r \$0-lowpass;
#X obj 330 225 r \$0-od2;
#X obj 400 225 r \$0-level;
#X obj 85 225 r \$0-switch;
#X obj 62 311 pack2 f s f f f f f;
#X msg 61 539 \; \$1-presetlabelr label \$2 \; \$1-switchr \$3 \; \$1-od1r \$4 \; \$1-lowpassr \$5 \; \$1-od2r \$6 \; \$1-levelr \$7 \;;
#X msg 569 269 bypass crisp warm mild;
#X obj 422 26 loadbang;
#X listbox 68 407 21 0 0 0 - - - 0;
#X obj -46 396 del 100 1 msec;
#X text -217 412 push when preset selected;
#X text -187 387 store running values;
#X obj 68 441 store;
#A saved;
#X obj -46 441 del 100 1 msec;
#X msg 7 420 clear;
#X obj -46 374 del 100 1 msec;
#X connect 1 0 23 0;
#X connect 1 1 2 0;
#X connect 2 0 23 0;
#X connect 3 0 4 0;
#X connect 3 0 15 0;
#X connect 4 0 23 0;
#X connect 5 0 35 0;
#X connect 6 0 10 0;
#X connect 7 0 11 0;
#X connect 8 0 12 0;
#X connect 9 0 13 0;
#X connect 10 0 35 2;
#X connect 11 0 35 3;
#X connect 12 0 35 4;
#X connect 13 0 35 5;
#X connect 14 0 35 6;
#X connect 15 0 17 0;
#X connect 15 1 14 0;
#X connect 15 1 10 0;
#X connect 15 1 11 0;
#X connect 15 1 12 0;
#X connect 15 1 13 0;
#X connect 15 1 5 0;
#X connect 15 1 19 0;
#X connect 15 1 46 0;
#X connect 16 0 35 1;
#X connect 17 0 16 1;
#X connect 18 0 14 0;
#X connect 19 0 37 0;
#X connect 23 0 1 0;
#X connect 24 0 3 0;
#X connect 25 0 23 0;
#X connect 26 0 39 0;
#X connect 28 0 23 0;
#X connect 30 0 11 0;
#X connect 31 0 12 0;
#X connect 32 0 13 0;
#X connect 33 0 14 0;
#X connect 34 0 10 0;
#X connect 35 0 26 0;
#X connect 37 0 16 0;
#X connect 38 0 25 0;
#X connect 39 0 43 1;
#X connect 40 0 39 0;
#X connect 40 0 44 0;
#X connect 43 0 36 0;
#X connect 44 0 43 0;
#X connect 45 0 43 0;
#X connect 46 0 45 0;
#X connect 46 0 40 0;
#X coords 0 0 1 1 86 32 2 0 0;
#X restore 109 159 pd presets;
#X obj 111 -124 inlet;
#X obj 111 -95 route preset;
#X obj 56 54 hsl 94 19 100 15000 0 0 empty empty empty -2 -8 0 10 #e4e4e4 #4d4d4d #373737 0 1;
#X obj 157 42 vu 37 80 \$0-m empty -1 -8 0 10 #000000 #000000 1 0;
#X text 295 53 Alexandre Torres Porres (2016);
#X text 293 72 Part of ELSE \; https://github.com/porres/pd-else;
#X text 295 33 [meter~]: Mono Vu meter;
#N canvas 275 222 423 406 vu 0;
#X obj 84 57 inlet~;
#X obj 84 202 env~ 1024;
#X obj 176 171 abs~;
#X obj 176 236 snapshot~;
#X obj 176 269 rmstodb;
#X obj 176 201 slop~ 0 0 0 0 1e+09;
#X obj 84 236 t f b;
#X obj 84 277 - 100;
#X obj 176 294 - 100;
#X obj 242 174 expr 1000 / $f1;
#X obj 242 132 else/initmess 500;
#X obj 84 347 outlet;
#X obj 176 347 outlet;
#X connect 0 0 1 0;
#X connect 0 0 2 0;
#X connect 1 0 6 0;
#X connect 2 0 5 0;
#X connect 3 0 4 0;
#X connect 4 0 8 0;
#X connect 5 0 3 0;
#X connect 6 0 7 0;
#X connect 6 1 3 0;
#X connect 7 0 11 0;
#X connect 8 0 12 0;
#X connect 9 0 5 3;
#X connect 10 0 9 0;
#X restore 246 64 pd vu;
#X connect 0 0 15 1;
#X connect 2 0 4 0;
#X connect 3 0 8 0;
#X connect 4 0 3 0;
#X connect 5 0 15 0;
#X connect 6 0 23 0;
#X connect 7 0 25 0;
#X connect 8 0 1 0;
#X connect 8 0 34 0;
#X connect 14 0 24 0;
#X connect 15 0 8 0;
#X connect 15 1 2 0;
#X connect 16 0 5 0;
#X connect 17 0 7 0;
#X connect 18 0 29 0;
#X connect 19 0 6 0;
#X connect 20 0 14 0;
#X connect 22 0 18 0;
#X connect 22 0 4 1;
#X connect 23 0 19 0;
#X connect 23 0 2 1;
#X connect 24 0 20 0;
#X connect 24 0 3 1;
#X connect 25 0 17 0;
#X connect 25 0 8 1;
#X connect 27 0 28 0;
#X connect 28 0 26 0;
#X connect 29 0 22 0;
#X connect 34 0 30 0;
#X connect 34 1 30 1;
#X coords 0 0 1 1 195 195 1 0 0;
